<svg width="55" height="35" viewBox="0 0 55 35" fill="none" xmlns="http://www.w3.org/2000/svg">
<path fill-rule="evenodd" clip-rule="evenodd" d="M36.3963 32.6053C36.3239 31.9356 37.3629 31.8665 37.6781 32.0668C37.4656 32.2302 37.3092 32.1841 36.9636 32.3291C36.6485 32.4626 36.6998 32.5455 36.394 32.6053H36.3963ZM43.5429 31.9931C43.2534 31.9149 43.4775 31.9793 43.3631 31.9103C43.4145 31.6364 44.0822 31.7791 44.311 31.8619C44.3997 31.8941 44.6425 31.9816 44.7056 32.0322C45.0161 32.2854 44.7733 32.4097 44.7733 32.4097C44.7569 32.412 44.7312 32.4189 44.7219 32.4166C44.7126 32.4166 44.6822 32.4212 44.6729 32.4189C44.6262 32.4097 44.6238 32.4097 44.5748 32.389C44.416 32.3222 44.3297 32.1496 43.7483 32.0299C43.6829 32.0161 43.5966 32.0069 43.5405 31.9931H43.5429ZM44.0728 31.7169C44.0098 31.7054 43.9164 31.7008 43.8627 31.687C43.704 31.6456 43.7507 31.6456 43.6806 31.5949C43.9444 31.3763 44.3507 31.4016 44.6589 31.5121C44.7522 31.5443 45.0067 31.6755 45.0394 31.7054C45.3593 31.9885 45.1025 32.0944 45.1025 32.0944L44.9577 32.0921C44.7943 32.0391 44.6705 31.8182 44.0752 31.7169H44.0728ZM46.3632 31.0241C46.2651 30.6789 46.3655 31.2727 46.3399 30.886C46.3212 30.5753 46.4006 30.4695 46.5103 30.3613C46.5663 30.4626 46.62 30.6628 46.613 30.8101C46.599 31.0564 46.5943 30.9965 46.4309 31.13L46.3632 31.0241ZM45.2635 30.7848C45.2706 30.7687 45.2962 30.8101 45.2846 30.8124L45.1071 31.3303C44.8246 31.3187 44.3927 31.2727 44.1639 31.2221C43.8254 31.1461 44.0168 31.321 43.8604 31.0287C43.4915 30.3383 44.8363 30.4994 45.2145 30.7456C45.2262 30.7526 45.2565 30.7963 45.2635 30.7825V30.7848ZM46.1297 30.7479C46.0457 31.1346 45.8356 31.1323 45.4176 31.1162L45.518 30.6651C44.6962 30.0966 43.9188 30.7042 43.837 29.8319C45.1748 30.1864 45.1491 29.9976 46.4496 29.8273C46.3702 30.5684 46.3562 29.6938 46.1297 30.7456V30.7479ZM44.1032 28.1771C45.8145 28.3083 46.2325 27.94 48.5041 28.2369L48.6162 29.6616C47.9391 29.8825 47.2014 29.8572 46.5173 29.6409L46.4799 28.7686C46.4426 28.6052 46.4589 28.6627 46.4006 28.5729L46.2815 29.6271C45.8169 29.9539 44.7009 29.9999 44.1616 29.703L44.1009 28.1725L44.1032 28.1771ZM45.3079 26.8744C45.4223 26.7754 45.5344 26.6741 45.6675 26.6051C45.8636 26.5061 45.9173 26.5222 46.0597 26.4325C46.062 26.4302 46.3282 26.2115 46.3679 26.1816C46.8932 25.7949 48.8053 25.7834 48.8193 25.788C49.2139 25.9353 49.1882 27.314 49.1672 27.7352C48.2216 28.0988 47.143 27.8088 46.4402 27.8157C45.999 27.8203 44.7733 28.2162 43.9001 27.8088L45.3079 26.8744ZM32.2312 28.0298C32.1845 27.7904 32.3316 26.4071 32.4086 26.2115C32.53 25.9031 32.8405 25.9906 33.2538 25.9952C34.8904 26.0228 35.1589 25.6522 36.4897 26.4578C36.6555 26.5567 36.9426 26.6764 37.1574 26.7501C37.0173 27.0677 37.3302 27.3692 37.2835 27.8963C36.4197 28.4164 35.285 28.0044 34.769 27.9837C34.3394 27.9653 33.4126 28.3129 32.2335 28.0298H32.2312ZM8.98447 30.6582C8.72065 30.5247 8.74633 30.6122 8.67629 30.2508C8.31674 28.4279 8.53621 28.3842 7.45057 26.5683C7.17274 26.1033 7.41088 25.9468 7.63501 25.6338L8.87007 24.0066C9.09654 23.6913 9.22495 23.5371 9.46309 23.2655C9.52612 23.3598 11.2141 26.9733 11.2048 27.1897C11.1908 27.5142 10.2032 28.3658 9.97672 28.7893C9.73625 29.2381 9.24596 30.3797 8.98447 30.6582ZM12.9115 30.3268C12.6827 30.0414 12.5216 29.6133 12.3651 29.3118C11.3892 27.4129 11.3285 27.9745 12.3278 26.3726C13.1683 25.0239 12.7714 25.2379 13.6936 24.6395L15.4796 23.4358C15.8018 24.002 16.9528 25.3208 17.1653 26.1678C16.9972 26.3979 16.2804 26.879 15.9559 27.0907C14.8306 27.8295 14.6251 28.0275 13.7963 29.1529C13.5418 29.4982 13.1052 30.0091 12.9091 30.3268H12.9115ZM32.0911 25.666C31.958 25.3461 32.1331 24.8213 32.1401 24.3104C32.7285 24.2482 32.418 24.4186 32.7542 24.6879C32.8569 24.7707 33.2515 24.9318 33.3985 25.0032C33.8025 25.1965 34.3278 25.4013 34.699 25.6085C34.3394 25.7995 32.5767 25.7443 32.0911 25.666ZM28.9673 26.826C28.3276 25.6407 28.0847 25.5763 28.3579 24.5198C28.4373 24.216 28.533 24.2091 28.8599 24.0733C30.3517 23.4473 29.5463 24.2782 30.7486 24.3748C30.8514 25.0009 31.1292 25.307 31.7876 25.1528C31.7759 25.8087 31.7129 25.9215 31.3557 26.1171C31.2436 26.177 31.1432 26.223 31.0241 26.2713L29.1564 27.1137L28.9673 26.8283V26.826ZM47.3601 25.6522C47.6099 25.4566 48.9664 24.5774 49.1975 24.559L49.3119 25.3024C49.0014 25.4681 47.729 25.6936 47.3601 25.6522ZM26.5555 26.7616C26.1096 26.8007 26.0512 26.6028 25.7827 26.3243C24.6854 25.185 24.1461 25.0998 24.7344 24.0503C25.171 24.1009 25.1547 24.2436 25.4629 24.5152C25.9508 24.9433 26.4364 25.0722 26.4598 25.7742C26.4715 26.1333 26.5882 26.5383 26.5555 26.7639V26.7616ZM31.2459 24.9525C30.9564 24.5958 30.7697 23.9053 31.0848 23.4726C31.379 23.6544 31.1012 23.4427 31.316 23.7419C31.6569 24.216 31.7386 23.979 32.0608 24.2805C31.9977 24.7293 31.7572 24.9986 31.2459 24.9525ZM31.4864 23.7304C31.4467 23.3299 31.5378 22.7384 31.8086 22.4231C32.509 22.621 32.0257 23.1366 32.1168 24.0434C31.825 23.9513 31.6872 23.8501 31.4864 23.7281V23.7304ZM31.1642 23.1504C30.6272 22.911 30.8467 22.2965 30.9564 21.7142C31.8156 21.6521 31.5238 22.8328 31.1642 23.1504ZM50.4723 22.9801C50.624 22.354 50.1244 21.5991 50.7735 21.392C50.8598 21.507 51.077 22.1515 51.0887 22.3264C51.119 22.7568 50.8295 22.8604 50.4746 22.9801H50.4723ZM24.5266 22.4714C24.6527 22.3333 24.8582 22.2228 25.0123 22.1147C25.5446 21.7395 25.5633 21.9789 25.5633 21.9789C25.5796 22.1262 25.2434 22.621 25.1337 22.7821L25.0566 22.8719C24.7578 22.8005 24.7391 22.7062 24.5266 22.4691V22.4714ZM30.6272 22.1837C29.7377 21.6313 31.6172 20.0087 31.4421 21.2124C31.3767 21.6567 31.1385 21.4679 30.723 21.5669L30.6272 22.1837ZM51.2568 22.1515C51.056 21.7648 50.7058 20.8005 51.4178 20.6255C51.4645 20.6946 51.5112 20.5795 51.5673 21.0582C51.6326 21.5968 51.7167 22.0571 51.2568 22.1515ZM26.9151 21.3805C27.5267 21.217 29.2101 20.5611 29.7611 20.6186C29.8031 20.9224 29.2474 21.2907 28.7128 21.8822L27.8233 22.743C27.8116 22.7545 27.7999 22.7752 27.7882 22.7867C27.6108 22.9893 27.8046 22.9317 27.4684 23.0215C27.2746 22.7499 26.9267 21.7602 26.9151 21.3828V21.3805ZM36.987 20.6969C36.9473 20.3839 36.9473 20.4713 37.0337 20.1813C37.2111 20.3355 37.3652 20.5358 37.4423 20.8097L36.987 20.6969ZM51.2404 20.347C51.3175 19.8775 51.3198 19.7256 51.7634 19.7118C51.8404 20.0271 51.9502 20.6716 51.8194 20.9777C51.6747 20.7936 51.719 20.7636 51.656 20.5128L51.2404 20.347ZM29.9945 20.1284C30.2163 20.0248 30.758 20.7959 30.4918 21.1089C30.3097 21.0859 30.4288 21.2032 30.235 20.9547C30.0646 20.7337 29.705 20.2642 29.9922 20.1307L29.9945 20.1284ZM43.6876 19.8798C44.0238 19.9466 44.0939 20.0202 44.2293 20.3102C43.8837 20.2389 43.788 20.2297 43.6876 19.8798ZM35.1052 19.5645C35.6095 19.6336 36.4103 19.8798 36.8609 20.0524L36.8142 20.5979L34.9465 20.0317L35.1076 19.5645H35.1052ZM20.6277 19.7164C21.2464 19.5369 21.8604 19.2193 22.4558 18.9753C23.0558 18.729 23.6932 18.4574 24.2465 18.2112C25.185 17.7923 25.2271 18.2457 25.8388 18.7175C25.9905 18.8349 26.4318 19.1778 26.5111 19.3228C26.6839 19.6405 26.6162 20.0501 26.7516 20.3401L22.7313 22.1722C22.262 21.6797 20.7841 20.0294 20.63 19.7164H20.6277ZM34.2297 19.0098C34.4818 18.9201 34.6009 18.9224 34.8904 18.9776L34.7597 19.7716C34.127 19.8499 34.0803 19.576 34.2297 19.0098ZM13.4228 19.6428C13.9737 19.3505 17.226 16.9637 17.5855 16.8854C17.798 17.1547 17.9101 17.3158 18.1692 17.5713L19.9903 19.5461C19.4066 19.9949 18.1132 20.6324 17.6066 21.0007L15.7388 22.8581L13.6679 20.0133C13.5628 19.8683 13.5161 19.7763 13.4251 19.6428H13.4228ZM42.4455 25.7926C42.5366 25.3829 42.5786 24.3656 42.5786 23.8892C42.5786 22.9455 42.6954 23.1435 43.4728 22.7959L50.4069 19.5829C50.6614 19.4563 50.8855 19.3412 51.0887 19.2354C51.3898 19.0789 51.5066 19.0167 51.8147 19.1594C51.7961 19.7256 51.5836 19.2929 51.2311 19.8476C50.9929 20.2205 51.1937 20.3517 50.9626 20.7636C50.5914 21.4219 50.568 21.1756 50.3789 21.4541C50.1454 21.7994 50.3602 22.1492 50.2435 22.5059C50.2085 22.6095 49.3353 23.8731 49.2396 23.9605L44.8176 26.9457C41.9319 28.9044 42.3522 29.0056 39.812 27.7858L33.1277 24.5705C32.4693 24.1055 32.495 23.0698 32.4413 22.7982C32.3526 22.3517 32.0701 22.3817 31.8226 22.1492C31.5261 21.8707 31.6755 21.5393 31.6569 21.1296C31.6172 20.2066 30.5852 20.7936 30.6319 19.8131C31.0848 19.7716 32.7752 20.446 33.2911 20.6255L40.97 23.3184C40.9887 23.7005 40.949 24.1125 41.0354 24.4761C41.0868 24.6971 41.1591 25.3553 41.2082 25.4543L41.1404 23.4013L42.4199 23.2632L42.4455 25.788V25.7926ZM31.295 19.3251C31.3954 19.2745 31.4631 19.2492 31.6569 19.3044L32.6117 19.6382C33.046 19.7693 33.4733 19.8867 33.9052 20.0248C35.4461 20.5151 40.6735 21.8178 41.1521 22.8719C40.865 22.7959 40.9467 22.7982 40.7319 22.6279L40.7085 22.6947C40.6058 22.8489 40.8113 22.7338 40.5895 22.7752C40.2953 22.5405 40.3933 22.621 40.0922 22.5888L31.1619 19.5622L32.2639 19.6865C31.9884 19.6796 31.4771 19.4701 31.295 19.3251ZM43.69 20.3033C44.4674 20.568 44.9203 20.69 45.1398 19.8637C45.3172 19.1939 45.9476 19.1778 46.4379 18.9523C47.3344 19.5668 47.0916 19.3574 47.722 18.9546L48.2753 19.1364L43.8394 21.0421L43.69 20.301V20.3033ZM9.71057 22.5428C9.40005 21.9605 9.13389 21.247 8.82338 20.6647C8.69263 20.423 8.0179 19.0006 8.05759 18.805C8.08561 18.6623 9.0942 17.4378 9.26464 17.3112C9.56114 17.0903 9.7666 16.9338 10.0398 16.7289C10.6981 16.2364 10.5581 16.2318 10.7565 16.0937C10.9503 16.1351 10.8756 16.1052 11.0087 16.2364L12.7293 18.729C13.0772 19.1916 13.1169 19.2446 13.0259 19.4955C12.8764 19.912 11.499 20.7544 11.1744 20.9892C10.5301 21.4564 10.1191 22.2274 9.71057 22.5405V22.5428ZM47.3998 17.7624C47.4348 18.149 47.5772 19.0351 47.0823 19.0305C46.5313 19.0236 46.7461 18.0938 46.7274 17.7209L47.3998 17.7624ZM32.6701 18.6439C32.6701 18.6208 32.6795 18.6116 32.6865 18.5955C32.9409 18.5058 33.0483 18.6324 33.2982 18.7405C33.4593 18.8096 33.6951 18.8579 33.9028 18.9316L33.8982 19.3251C33.6834 19.4886 33.5129 19.5576 33.1791 19.5576L32.7028 18.8372C32.6328 18.7014 32.6841 18.851 32.6608 18.6922C32.6584 18.683 32.6701 18.6669 32.6701 18.6439ZM42.135 22.7361C42.5436 21.8293 45.2028 20.69 46.4379 20.1859L51.1797 18.2066C51.3571 18.462 51.189 18.3009 51.4249 18.4574C50.8622 18.8855 47.8271 20.1307 46.8838 20.637L43.4635 22.2482C42.8938 22.4944 43.1436 22.186 42.5063 22.6786C42.5833 22.4875 42.6463 22.4714 42.7584 22.3011L42.1327 22.7384L42.135 22.7361ZM49.3703 18.6508C49.487 18.3539 49.6575 18.0593 49.8909 17.8912L49.8956 18.3976L49.3703 18.6508ZM45.3663 17.8268C45.4713 17.7324 45.539 17.691 45.6745 17.5506L45.957 17.2445C46.7134 17.7693 46.522 17.4678 46.5103 18.607C46.1858 18.7221 45.957 18.8878 45.6348 18.9408C45.3383 18.4505 45.7048 18.492 45.3663 17.8268ZM5.39135 21.0283C5.09251 20.6209 4.49716 19.1778 4.224 18.6324C3.42786 17.042 3.46288 17.1409 3.92282 16.2502C4.09092 15.9234 4.13528 15.7738 4.44813 15.5851C4.72129 15.4193 4.86838 15.2766 5.1392 15.1547C5.3073 15.4032 5.44738 15.6472 5.62482 15.9257C5.79292 16.1858 5.96102 16.4044 6.13379 16.6875C6.29722 16.9545 6.46765 17.2054 6.63342 17.4539C6.79685 17.7002 6.9346 17.9902 7.11203 18.2503C7.50893 18.8349 7.60232 18.6899 6.59139 19.7279C6.15714 20.1744 5.83962 20.5841 5.39135 21.0283ZM43.0269 21.7211C42.9475 20.278 42.679 19.118 43.3141 18.3861C43.6339 18.0178 43.9281 17.8866 44.3764 17.5368C44.8036 17.2054 44.9974 16.8578 45.2822 16.5701C46.3889 16.7105 45.2402 17.6818 44.9787 17.9051C45.2355 18.0731 45.3569 18.0593 45.3616 18.4344C45.1235 18.4689 45.0347 18.3976 44.6939 18.4022C45.1935 18.607 45.8122 18.8372 45.1562 19.4264C44.7196 19.3389 45.0418 19.2653 44.5701 19.1709C44.8526 19.5461 45.1281 19.6036 44.876 20.2389L44.353 20.301C44.339 20.2826 44.3297 20.2527 44.3227 20.2366C44.1616 19.8936 44.0542 19.6497 43.4168 19.7601C43.7016 19.8798 43.5359 19.7993 43.5102 20.0501C43.4075 21.0467 43.5802 20.7705 43.6246 21.4518L43.0316 21.7234L43.0269 21.7211ZM35.0912 19.286C35.1029 18.6646 35.1729 18.7635 35.5115 18.4574C35.8103 18.1859 35.7916 18.057 36.0298 17.7808C36.3309 17.4332 38.0796 17.1755 38.9762 16.1029C39.9427 14.9498 38.8571 14.8324 39.7116 14.5102C39.7606 15.8543 39.6672 16.1535 40.5498 16.8256C41.3226 17.4125 41.9763 17.3964 43.1063 17.3043C43.0059 17.0143 42.8261 16.9108 42.9639 16.6277C43.2674 16.0154 44.0869 16.63 44.7639 16.7819C44.5398 17.4885 43.265 17.9189 42.8985 18.5242C42.4712 19.2285 42.8588 20.7959 42.7584 21.7579C41.9436 22.3494 41.9529 22.5681 41.6167 22.8742C41.3716 22.6924 41.2338 22.4944 40.9163 22.285C40.1575 21.7832 39.1583 21.3782 38.2874 21.0813C37.6991 20.881 37.8812 20.9639 37.5894 20.5082C37.4703 20.324 37.2041 19.8913 37.0314 19.7947C36.7956 19.6635 35.3294 19.2791 35.0912 19.2814V19.286ZM23.3196 15.1754C24.4846 14.8117 24.6714 14.5723 25.4769 15.2191C25.6613 15.3664 25.7594 15.4792 25.9251 15.6403L26.7703 16.3883C27.0341 16.6277 26.9898 16.4965 27.1555 16.8026L26.3711 17.2215C26.0722 17.3642 25.8341 17.523 25.5446 17.5851L22.9717 15.3066L23.3196 15.1754ZM8.744 11.7621C8.75567 11.7529 8.77435 11.7345 8.78836 11.723L9.65453 11.0762C10.439 10.4985 12.225 9.42368 13.1262 9.28789C13.2196 9.594 15.0127 12.7242 15.3396 13.1246C15.7178 13.0579 16.026 12.8945 16.3762 12.7794L18.3233 12.0866C19.6494 11.6585 19.0447 11.4215 20.4502 13.2904C20.672 13.5827 20.8074 13.822 21.0129 14.0775C21.2207 14.3376 21.4145 14.5631 21.5499 14.913C21.3561 15.0189 21.2487 15.0419 20.9826 15.1086L19.4813 15.6633C19.0634 15.8612 17.9614 16.4781 17.6392 16.2824C17.4385 16.1604 16.5676 14.9406 16.4182 14.722C16.0983 14.2524 15.6968 13.5504 15.2578 13.1592C15.1154 13.1062 13.0305 14.112 12.741 14.2639C12.3931 14.4481 12.0499 14.7933 11.8071 15.0764C11.4546 15.4861 11.3309 15.5989 10.9503 15.9579C10.6818 15.7093 10.5627 15.3135 10.3363 14.9268L8.65294 11.8404L8.74166 11.7598L8.744 11.7621ZM3.08933 10.899C3.22007 10.6781 5.933 8.30281 6.25753 8.13249C6.4303 8.30741 8.21635 11.5665 8.26538 11.845C7.9105 12.2178 6.78284 12.5585 6.45598 12.9819C6.05674 13.4998 5.5828 14.1466 5.13453 14.5793C4.93842 14.4296 3.82243 12.3306 3.57962 11.8703C3.40218 11.5365 3.19906 11.311 3.08933 10.899ZM1.19588 11.0578C0.500131 9.77583 0.565503 9.90472 1.50172 9.16821C1.74453 9.27868 2.3679 9.74591 2.46829 9.95305C2.3072 10.2062 1.48771 10.9036 1.19821 11.0578H1.19588ZM21.8908 11.1361C21.1296 11.1315 20.3802 11.3041 19.7428 11.2834L17.4221 8.38336C17.2634 8.21535 17.198 8.22685 17.198 7.91154L19.8409 8.07495C20.2354 8.81376 21.6503 10.5998 21.8908 11.1338V11.1361ZM10.934 5.95058C11.576 5.73423 14.3426 4.66399 14.8563 4.6824L16.3482 6.9978C16.4322 7.12899 16.7591 7.64455 16.8174 7.70439C16.5676 7.95987 16.2408 8.0082 15.8509 8.09336C15.1668 8.24066 13.766 8.81376 13.0889 8.97487C13.0235 8.91043 13.0282 8.91963 12.9511 8.83217L10.9363 5.95058H10.934ZM31.874 6.68018C31.7829 6.33725 31.4421 5.8424 31.2063 5.36137C30.765 4.46375 30.6996 4.45684 31.2506 4.13232C31.3954 4.04716 32.7962 2.7974 33.5877 2.45446C33.7651 2.9424 34.5029 5.1105 34.4725 5.5455C34.0639 5.85391 33.4266 6.1301 32.9503 6.35106C32.2359 6.68249 33.0507 6.65256 31.874 6.68018ZM32.453 30.4303C32.5324 30.6421 32.418 30.4649 32.6328 30.527L32.6958 30.3958L33.4896 30.3866C33.0437 30.2232 32.4647 30.3383 32.474 29.7974C32.9736 30.0736 33.5573 30.191 34.225 30.0229C34.3301 29.8733 34.1667 29.8388 34.3534 29.9125L33.8702 29.9102L32.7028 29.7491L32.8522 28.4671L34.2881 28.3773C34.5566 28.1518 34.9068 28.1564 35.1683 28.3773L36.8889 28.3658L36.8469 29.5948C36.8656 29.6087 36.8936 29.6041 36.903 29.634C36.9987 29.924 36.8189 29.5373 37.1691 29.8457C37.0244 30.3935 36.7255 30.3475 36.1605 30.5224L36.9076 30.4695L36.9636 30.6421C37.1668 30.9206 36.903 30.5914 37.0781 30.7687L37.1714 30.863C37.1831 30.8745 37.2088 30.8953 37.2251 30.9114C37.2065 31.6732 37.0547 31.3395 36.4757 31.5696L36.2889 31.8228C36.2819 31.832 36.2656 31.8504 36.2562 31.8665C36.7559 31.6571 36.9123 31.6364 37.4539 31.756L37.1084 31.9195C36.7909 31.9977 36.5574 32.0437 36.2983 32.313C36.2796 32.5432 36.3169 32.5271 36.4243 32.6951C36.7255 32.6675 36.8096 32.4212 37.2975 32.313C38.194 32.1151 37.6104 32.023 38.2454 32.0069C38.9738 31.9885 39.4898 32.58 39.5412 33.2843C38.9318 33.503 38.6586 33.694 37.8462 33.7078C37.3629 33.7147 36.4407 33.6894 36.2492 33.2981C35.9971 33.2774 36.1488 33.2613 36.0858 33.3787C37.0547 34.1704 38.3505 33.8988 39.4758 33.4984C39.4268 34.0968 39.3544 34.0185 38.9575 34.2625L39.4525 34.2694C39.4711 34.251 39.5202 34.2141 39.5295 34.2003L39.5925 34.0784C39.6042 34.0415 39.6252 33.8068 39.6299 33.7745C39.8307 32.4189 39.4688 32.7365 39.1886 32.0437C38.9388 31.977 38.8641 31.9034 38.6563 31.8435C38.3575 31.7584 38.2034 31.8136 37.9255 31.7768C37.1714 31.6755 37.4493 31.2658 37.4259 30.8147C37.1598 30.649 37.008 30.7433 37.1668 30.3222C37.2648 30.069 37.4866 30.0529 37.2602 29.7375C36.9847 29.3509 37.0057 29.6708 37.064 28.3014L37.6641 28.085L37.3582 26.8421C38.626 27.2656 41.1871 29.0125 42.4035 28.7341C42.9475 28.6098 43.2884 27.9193 43.8721 28.1425C44.0168 28.4625 43.9678 29.1621 43.9468 29.5695L43.6036 29.7422C43.6386 30.1518 43.6736 30.1242 43.8651 30.3636L43.5989 30.5776C43.6363 31.0748 43.8744 31.3786 43.4075 31.6571C43.216 32.0184 43.2253 32.1519 42.9102 32.3982C42.7841 32.4972 42.4315 32.7734 42.3218 32.9184C41.8315 33.5743 42.3078 33.8574 42.6066 34.2786L43.0035 34.2625C42.7374 34.0438 41.9272 33.5628 42.4899 33.0311C42.5996 32.7872 43.2534 32.2095 43.4471 32.1243C43.9164 31.9218 44.381 32.4626 44.7593 32.5432C45.5134 32.0483 45.1725 31.8205 45.2659 31.4637L46.2325 31.1876C46.3679 31.5512 46.55 32.4718 46.2535 32.7733C46.1624 33.3833 45.4877 33.9472 44.8503 34.2441L45.4106 34.2809C45.6511 34.0024 45.8285 33.9126 46.0293 33.6318C46.2091 33.3741 46.3188 33.1071 46.529 32.7941C46.7648 33.0288 46.8675 33.3902 47.1103 33.6249C47.3508 33.8551 47.6823 34.0691 47.9088 34.2763L49.933 34.2832C50.2762 34.0899 50.2108 34.2141 50.5703 33.9011C51.5066 33.0864 50.3019 32.4258 49.9843 32.0806L49.8022 31.9149L49.7532 32.0115C49.9587 32.3591 50.3275 32.3798 50.5096 32.7803C51.2171 33.6272 49.8863 34.2878 48.8613 34.2095C47.9695 34.1405 46.9422 33.4408 46.7858 32.6997C46.4799 32.3913 46.6317 31.5489 46.6971 31.1024L47.1453 31.1162L47.3554 31.0495C46.9702 30.9091 47.2924 31.0149 47.1383 30.8883C46.7321 30.8377 46.8045 30.8285 46.7531 29.9516C48.336 30.1541 47.9391 30.0068 48.9897 29.7422C48.866 30.1035 48.9104 30.0137 48.5905 30.1449C48.4831 30.306 48.6465 30.2186 48.4504 30.3106C48.5625 30.3014 48.7119 30.2876 48.7679 30.2669C48.7843 30.26 48.8076 30.2508 48.824 30.2439L49.0481 30.0782C49.4123 29.7997 49.0645 29.5235 49.0201 29.4775L48.8917 29.3555C48.775 29.1898 48.7213 28.4118 48.6956 28.1425C49.0481 28.085 49.2092 28.0643 49.452 27.9055L49.1298 25.7052L49.6575 25.5233C49.473 24.2667 49.3446 24.6625 49.9516 23.5417C50.2061 23.0721 50.1034 23.4266 50.7851 23.0951C51.3548 22.819 51.0723 22.6694 51.3805 22.3471C51.8288 21.8799 51.684 22.3863 51.8288 21.5324C51.9011 21.0974 52.1696 21.1526 52.1136 20.5404C52.0786 20.1629 51.9362 19.7924 52.0529 19.4655C52.1766 19.1203 52.5175 18.9039 52.326 18.5288L51.9969 18.4367C51.5019 18.3216 51.7237 18.2526 51.2661 17.8958C50.8669 17.9465 50.6637 18.2135 50.1898 18.3308C50.1711 17.8567 50.0847 17.3412 49.8489 17.0673C48.8287 19.4909 48.6886 18.8786 47.6543 18.6093L47.6613 17.8268C47.8574 17.6634 48.1819 17.5621 48.4154 17.401C48.7446 17.1731 48.7376 16.989 49.2512 16.9545C51.2544 16.8118 51.6747 16.2893 51.8661 16.6093C52.1089 17.0143 51.628 16.6875 51.9548 16.9936C52.3774 17.3895 54.021 17.0972 54.7471 16.2019C55.2818 15.5436 54.8382 12.5907 54.6047 11.723C54.2312 10.3374 53.6662 9.26717 52.9307 8.32122C51.3034 6.23367 48.2333 5.20256 45.5601 5.94598C43.5242 6.51217 42.2308 7.62614 41.1825 9.21194C40.9 9.63773 40.5754 10.5469 40.3373 10.8622C40.4027 11.3524 40.335 11.0946 40.5381 11.1683C41.1311 9.32011 42.4362 7.68368 43.9468 6.87352C49.0925 4.11161 54.1284 7.66757 54.6561 13.4929C54.7098 14.0798 54.7308 14.6989 54.7215 15.3089C54.7145 15.9671 54.3969 16.3077 53.9183 16.4827C53.7012 16.7727 52.2303 17.1985 52.27 16.6622L52.4054 16.3446C52.5128 16.1489 52.5689 16.0592 52.5922 15.8566C52.5222 15.6219 52.6039 15.8221 52.5058 15.7669C52.3494 15.6771 52.4825 15.9717 52.4171 15.7347C52.4124 15.7139 52.3821 15.7277 52.3657 15.7185L52.1043 15.8843C50.6287 16.9039 49.7088 16.554 48.9454 16.7335C48.6022 16.8141 48.1399 17.5736 47.0076 17.4286C45.5367 17.2399 46.2254 16.3768 45.385 16.3561C44.876 16.3423 45.3289 16.5632 44.7803 16.5471C43.83 16.5195 42.8448 15.5091 42.5319 15.3043L42.2191 15.2559L42.2611 15.8382C42.2751 16.2387 42.7024 16.699 42.8144 17.111C42.149 17.2077 41.5303 17.1524 41.0027 16.8486C39.4128 15.9418 39.9497 14.0476 40.2603 12.1119L40.0618 12.2339C40.0455 12.2431 40.0081 12.2892 39.9941 12.2708C39.9824 12.2523 39.9497 12.2961 39.9264 12.3076L39.4921 12.0659C39.2096 11.9301 39.2143 11.9347 38.9575 11.9002C38.8641 11.8887 38.7637 11.937 38.5699 11.815L38.3411 11.5642C38.2734 11.4905 38.3855 11.5135 38.2197 11.4744L38.4275 12.9129C38.4952 12.6298 38.5559 12.3559 38.7217 12.1626C39.6789 11.9738 39.9941 12.349 39.847 13.2397C39.805 13.4952 39.7957 13.9946 39.6766 14.1972C39.3801 14.6943 39.0229 14.3606 39.0205 14.3583C39.1303 15.1086 39.1723 15.493 38.675 16.0408C37.5357 17.2905 36.422 17.1754 35.9177 17.6841C35.4764 18.1283 35.5325 18.3953 34.7107 18.6116C33.7628 18.8602 33.569 18.4551 32.8452 18.3953C32.1471 18.3378 30.5455 18.6899 29.3688 17.6197C28.8108 17.111 28.7175 16.9361 28.7268 16.0914C28.533 16.1904 28.7128 16.0523 28.5237 16.3216C28.4303 16.4528 28.4513 16.4458 28.3579 16.5609C27.7812 16.432 27.7322 16.1858 27.3983 15.9027C27.3797 15.8889 27.361 15.8658 27.3493 15.852C27.1509 15.5989 27.1976 15.5574 27.1135 15.2904L26.5905 15.1938C26.5158 15.0488 26.5578 15.1431 26.5088 14.9153C26.4248 14.5885 23.922 12.3605 23.6675 11.9186C23.7772 11.8427 23.6395 11.914 23.8496 11.8265C23.8729 11.815 23.9476 11.7897 23.9733 11.7805L24.8932 11.5043C25.2154 11.4054 25.8131 11.2972 25.9695 11.1246C26.0022 10.998 25.9835 11.0348 26.0255 10.8967C25.9275 10.5561 24.7298 8.69408 24.578 8.21765C24.8745 7.98289 27.2092 6.47534 27.5781 6.39248L28.01 7.1405C28.0194 7.15661 28.0287 7.17503 28.038 7.19114L28.2248 7.77574C27.9867 7.92304 27.7112 8.1463 27.5991 8.39487L27.6248 8.60201C27.8279 8.31892 27.6201 8.19003 28.0824 8.21765C28.1758 8.07265 28.3462 7.92074 28.4653 7.999L28.6848 7.75503C28.6988 7.74582 28.8715 7.63304 28.8785 7.62844C29.2614 7.38677 30.0436 7.00011 30.5268 7.08987C30.7673 6.81137 32.7799 6.79296 33.2585 6.79296C34.0569 6.79066 35.5698 6.63415 36.1442 6.97249C36.4897 6.96098 36.2866 7.15661 36.3426 6.75614L35.5862 6.59042C35.1472 6.02423 34.3161 0.859454 33.9028 0.366913C33.4943 0.673025 32.9479 1.31977 32.6117 1.67882C32.3853 1.92049 32.2125 2.0793 31.9837 2.32327C31.5098 2.82962 28.6988 4.55811 27.9703 5.00923C25.1337 6.76764 24.1414 7.32693 20.8845 8.51225C20.658 8.26828 19.3739 5.2532 19.0564 4.50057C19.0261 4.42923 18.97 4.27272 18.942 4.21748C18.7879 3.92057 19.0027 4.11621 18.7015 3.98272C18.1155 3.72494 16.4696 3.55922 15.7388 3.59375C14.2212 3.6674 11.9472 4.56042 10.5581 5.19335C7.85214 6.42471 8.6366 6.01272 6.08709 7.50646C5.35866 7.93225 4.66292 8.4386 3.92749 8.80916C3.54226 8.57209 3.28077 8.04963 2.96325 7.76654C2.65507 7.81257 1.5134 8.22916 1.19121 8.37876C0.957735 8.48693 0.0962264 9.38225 0.0285197 9.5963C-0.160592 10.1901 0.649553 10.754 0.733603 11.1591C0.787301 11.4146 0.731268 13.6678 0.99976 14.3238C1.82625 16.3446 2.62238 18.1628 3.37416 20.2573C4.78433 24.1861 6.54236 28.3405 7.97821 32.2808C8.17433 32.8171 8.41247 33.5375 8.66462 34.0392L12.7784 34.0438C12.5589 33.0334 12.2484 33.4615 13.2196 32.2831C13.4321 32.0253 13.5909 31.7745 13.8056 31.519C14.0345 31.2497 14.2562 31.1231 14.4897 30.8515C14.9473 30.3176 15.3512 29.9424 15.8205 29.4775L18.5054 26.7547L21.6549 24.4876C21.9678 24.2713 23.0488 23.4956 23.3149 23.4128C23.4177 25.399 22.953 24.6372 24.041 26.3036C24.4356 26.9066 24.2932 26.8306 25.0169 27.1575C25.4442 27.3485 25.8481 27.5418 26.2753 27.7421C26.782 27.9768 27.2419 27.8617 27.87 27.8088C28.3042 27.772 29.119 27.7329 29.4972 27.604C30.291 27.337 31.4537 26.6488 32.1401 26.5291C32.1121 27.07 31.895 27.7121 31.9837 28.2185L32.6117 28.3819L32.5791 29.466C31.867 30.0368 32.3876 29.8043 32.4507 30.4326L32.453 30.4303Z" fill="#030203"/>
<path fill-rule="evenodd" clip-rule="evenodd" d="M42.4409 25.7811L42.4152 23.2563L41.1358 23.3944L41.2035 25.4474C41.1545 25.3484 41.0821 24.6902 41.0307 24.4692C40.9467 24.1056 40.984 23.6936 40.9654 23.3115L33.2865 20.6186C32.7705 20.4414 31.0802 19.767 30.6273 19.8062C30.5806 20.7867 31.6125 20.1997 31.6522 21.1227C31.6709 21.5324 31.5215 21.8638 31.818 22.1423C32.0654 22.3725 32.3479 22.3425 32.4367 22.7913C32.4904 23.0629 32.4647 24.0986 33.1231 24.5636L39.8073 27.7789C42.3475 28.9964 41.9273 28.8975 44.813 26.9388L49.2349 23.9536C49.3306 23.8662 50.2038 22.6026 50.2388 22.499C50.3579 22.1446 50.1408 21.7947 50.3742 21.4472C50.5634 21.1687 50.5867 21.415 50.9579 20.7567C51.1891 20.3447 50.9883 20.2136 51.2264 19.8407C51.579 19.2883 51.7914 19.721 51.8101 19.1525C51.5019 19.0098 51.3852 19.0697 51.084 19.2285C50.8785 19.3366 50.6567 19.4517 50.4023 19.576L43.4682 22.789C42.6907 23.1366 42.574 22.9386 42.574 23.8823C42.574 24.3587 42.5319 25.376 42.4409 25.7857V25.7811Z" fill="#FBB211"/>
<path fill-rule="evenodd" clip-rule="evenodd" d="M45.4433 15.058C46.0293 15.2421 47.2527 16.2433 49.1065 15.2398C49.1322 14.8969 48.8146 15.5828 49.0038 15.0511C49.4544 15.0258 49.5944 15.1063 49.6411 15.4654C49.34 15.302 49.6248 15.3457 49.2349 15.2835C49.0388 15.5436 48.9501 15.4516 48.782 15.7162C48.6279 15.9556 48.6629 16.0845 48.4714 16.3469C48.245 16.6599 47.764 17.0489 47.2411 17.0305C46.2208 16.9982 45.9803 15.7922 45.8379 15.5597C45.6371 15.2329 45.5414 15.4378 45.3803 15.0557L45.1305 15.1593C45.1211 15.1593 45.0955 15.1524 45.0885 15.1524C45.0814 15.1524 45.0604 15.1478 45.0488 15.1409C45.2309 14.8117 45.3126 14.8232 45.7235 14.8347L45.5134 14.9613C45.4994 14.9751 45.4597 15.0396 45.441 15.058H45.4433ZM45.3943 12.6781C45.3873 12.8991 45.5391 13.509 45.3009 13.6034C45.3079 13.9417 45.3499 14.0959 44.9063 14.1374C44.7079 14.1558 44.6449 14.1512 44.4557 14.0844C44.1195 13.9647 44.3087 14.0292 44.2293 13.9348C44.1079 13.5942 44.0145 13.6632 43.8044 13.4538C43.5405 13.1914 43.732 13.2098 43.4051 13.0625C43.3888 13.0533 43.3678 13.0372 43.3608 13.028L43.2767 12.952C43.1553 12.7955 43.1413 12.6413 43.1133 12.4618C42.7397 12.4825 42.7374 12.547 42.3382 12.4342C42.693 12.2408 42.7444 12.494 43.0713 12.1465L42.7631 12.0452C42.4619 11.9785 42.6207 12.0797 42.3218 11.8404C41.4323 11.1246 40.1879 12.4411 41.7662 13.6586C42.1957 13.5827 41.8759 13.5689 42.1304 13.4492C41.9086 14.3859 41.988 14.5309 42.5179 15.2997C42.8308 15.5022 43.816 16.5126 44.7663 16.5425C45.3149 16.5586 44.862 16.3377 45.371 16.3515C46.2138 16.3722 45.5227 17.2353 46.9936 17.424C48.1236 17.569 48.5858 16.8095 48.9314 16.7289C49.6948 16.5494 50.6147 16.8993 52.0902 15.8797L52.3517 15.7139C52.5035 15.2651 52.6973 15.1109 52.6016 14.5079L52.7183 14.4573C52.7346 14.4504 52.758 14.4412 52.7767 14.4343L53.0078 14.3399C53.379 14.1604 53.6779 13.8658 53.8343 13.4768C53.7199 13.2789 53.8109 13.3502 53.7386 13.173C53.6405 12.9313 53.7479 13.0717 53.5821 12.9198C53.3813 13.1108 53.5214 12.9843 53.2623 13.074C53.2413 13.0809 53.2202 13.0855 53.1992 13.0924C53.0592 13.1431 52.5572 13.3502 52.6856 13.4814C52.7603 13.2558 52.5222 13.1154 52.4848 13.0855C52.242 13.3709 52.0436 13.1983 51.7167 13.0694L51.2614 13.7024C51.1377 13.9509 51.2357 13.8381 50.9836 14.0108C50.5377 14.3146 49.8513 14.6138 49.3586 14.2317C48.9431 13.9072 49.0505 12.8462 49.1579 13.3433C49.2863 13.1868 49.2372 13.2904 49.2349 13.0441C49.1415 12.662 50.4653 11.2558 51.4225 11.815C52.0692 12.1925 51.7377 11.9969 52.4521 11.9002C52.3074 12.1004 52.3354 12.0498 52.1276 12.1396C51.586 12.3789 51.8498 12.1994 51.7727 12.3789C51.9151 12.5147 51.8404 12.5009 52.1299 12.5608C52.305 12.5953 52.4451 12.5815 52.6272 12.5792L52.7743 11.6723C51.9758 11.3386 51.0139 11.097 50.1361 11.021L49.8629 10.2822C49.7392 10.0359 49.8069 10.1579 49.6972 10.0405L49.7065 11.0256C48.9594 10.9519 48.3337 10.8093 47.5142 10.777C46.7111 10.7448 45.971 10.7816 45.1468 10.7747L45.3406 9.75052C45.3196 9.83568 44.82 10.5722 44.7079 10.7402L42.3708 11.0164L42.4946 11.8197C42.8565 11.8933 42.9639 11.9393 43.16 11.7092C43.0923 11.4261 42.8074 11.6516 42.5926 11.1361C43.7203 11.7069 43.5032 10.9381 44.4721 11.3823C44.7873 11.5273 45.5671 12.3099 45.3873 12.6735L45.3943 12.6781Z" fill="#F1C691"/>
<path fill-rule="evenodd" clip-rule="evenodd" d="M35.229 17.6473L35.0398 17.9143C35.0282 17.9258 35.0118 17.9419 35.0002 17.9534C34.2437 18.6991 33.6297 18.0363 33.3869 17.9235C33.2445 17.7025 32.7588 17.0719 32.4507 16.9476C32.3082 16.8901 32.3619 16.9177 32.2078 16.8693L31.9697 16.7934L32.2732 16.5632C32.2849 16.6507 31.9674 16.9292 33.067 16.9844C33.8421 17.0236 34.5309 16.8394 35.1893 16.4942C35.4788 16.3423 35.6352 16.2732 35.808 15.9878C35.815 15.974 35.8266 15.951 35.8337 15.9395C36.0718 15.5137 35.7473 16.0454 35.9037 15.7968L36.3496 15.9119C36.2913 15.9418 35.7286 15.9579 35.6329 16.5724C35.5395 17.1686 35.5745 17.2077 35.2266 17.6496L35.229 17.6473ZM36.4967 12.3237C38.0049 11.8104 37.7411 14.3123 36.471 14.8232C35.6796 15.1408 35.2243 14.4458 35.3854 13.6747C35.5325 12.9797 35.92 12.517 36.4944 12.3237H36.4967ZM34.2064 11.9739C34.7317 12.5101 33.653 13.1822 32.9783 13.3709C31.3907 13.8197 31.302 13.3318 30.3354 13.4699L30.9378 13.8635C31.0942 13.9762 31.0241 13.8474 30.9961 13.9348C31.1245 14.1189 31.0848 14.0453 31.2366 14.2064C31.846 14.8485 32.1448 15.7255 31.33 16.0108C30.9261 16.1535 30.3914 15.9418 30.0786 15.7278C29.6373 15.4216 29.5299 15.0603 29.3408 14.8762C29.1704 14.7841 29.3035 15.0902 29.1587 14.6552C29.0793 14.4181 29.154 13.9532 29.2778 13.7599L28.3065 13.73C28.3742 13.9947 28.491 14.2478 28.5984 14.5125C28.6871 14.7312 28.8622 15.0189 28.8902 15.2007C28.7898 15.1201 28.5377 14.7427 28.4256 14.6069C27.2699 14.577 27.1042 14.8831 27.389 15.8981C27.7229 16.1812 27.7719 16.4297 28.3486 16.5563C28.442 16.4412 28.4209 16.4505 28.5143 16.317C28.7058 16.0477 28.5237 16.1858 28.7175 16.0868C28.7058 16.9315 28.8015 17.1064 29.3595 17.6151C30.5362 18.6876 32.1378 18.3332 32.8359 18.3907C33.5596 18.4505 33.7534 18.8556 34.7013 18.607C35.5231 18.3907 35.4671 18.1237 35.9084 17.6795C36.4127 17.1732 37.5263 17.2882 38.6657 16.0362C39.1629 15.4907 39.1209 15.104 39.0112 14.3537C39.0135 14.3537 39.3707 14.6897 39.6672 14.1926C39.7887 13.9901 39.798 13.4906 39.8377 13.2351C39.9848 12.3444 39.6696 11.9693 38.7124 12.158C38.5466 12.3513 38.4859 12.6252 38.4182 12.9083L38.2104 11.4698L36.5481 11.3985L34.1223 11.3455L33.7371 11.4744C34.141 11.7966 34.0383 11.5527 34.2017 11.9716L34.2064 11.9739Z" fill="#BD6B43"/>
<path fill-rule="evenodd" clip-rule="evenodd" d="M8.64828 11.8334L10.3316 14.9199C10.5581 15.3065 10.6771 15.7024 10.9456 15.951C11.3262 15.5919 11.4499 15.4769 11.8025 15.0695C12.0453 14.7864 12.3885 14.4411 12.7364 14.257C13.0235 14.1051 15.1108 13.0993 15.2532 13.1523C15.6921 13.5435 16.0913 14.2455 16.4135 14.715C16.563 14.9337 17.4315 16.1535 17.6346 16.2755C17.9568 16.4712 19.0588 15.8543 19.4767 15.6564L20.9779 15.1017C21.2441 15.035 21.3538 15.0119 21.5452 14.9061C21.4098 14.5562 21.216 14.3307 21.0082 14.0706C20.8028 13.8151 20.665 13.5757 20.4456 13.2834C19.0377 11.4146 19.6424 11.6516 18.3187 12.0797L16.3715 12.7725C16.0213 12.8876 15.7108 13.051 15.3349 13.1177C15.008 12.7173 13.215 9.58709 13.1216 9.28098C12.2204 9.41677 10.4343 10.4893 9.64988 11.0693L8.7837 11.7161C8.77202 11.7276 8.75101 11.746 8.73934 11.7552L8.65062 11.8357L8.64828 11.8334Z" fill="#979191"/>
<path fill-rule="evenodd" clip-rule="evenodd" d="M13.4181 19.6313C13.5115 19.7648 13.5558 19.8545 13.6609 20.0018L15.7318 22.8466L17.5996 20.9892C18.1062 20.621 19.3996 19.9857 19.9833 19.5346L18.1622 17.5598C17.9031 17.3044 17.791 17.1432 17.5785 16.874C17.219 16.9522 13.9667 19.3367 13.4158 19.6313H13.4181Z" fill="#979191"/>
<path fill-rule="evenodd" clip-rule="evenodd" d="M43.223 8.49154L43.3491 8.94725C43.3561 8.96336 43.3654 8.99098 43.3794 9.0094C43.6806 8.82066 43.4635 8.94495 43.6433 8.64114C44.6799 8.5836 43.8861 8.32352 44.6869 8.59741C44.9017 8.67106 44.9554 8.64344 45.1328 8.77924L45.2636 8.90122C45.2729 8.91043 45.2939 8.93114 45.3079 8.94495C45.6605 8.77233 45.2776 8.97257 45.4947 8.77924C45.6184 8.66876 45.4597 8.56749 45.6021 8.7217C45.8309 8.61122 45.7282 8.48463 45.7795 8.84368C45.9219 8.7217 45.8706 8.78614 45.985 8.61812C46.0317 8.54908 46.0504 8.47543 46.0784 8.41789C46.3866 8.59741 46.0504 8.50074 46.4192 8.56519L46.5943 8.7217C47.4115 8.57439 48.4901 8.66646 49.1485 8.70789L49.2209 8.70559C49.312 8.68257 49.2653 8.70328 49.2956 8.64344L49.4193 9.17281C49.4287 9.19813 49.4334 9.21654 49.445 9.24416C49.4567 9.27178 49.466 9.29249 49.4777 9.31781C49.4894 9.34543 49.5057 9.37075 49.5174 9.39376C49.5291 9.41908 49.5408 9.449 49.5594 9.47432L49.5781 8.99789L49.7836 9.449C49.6341 8.90352 49.7369 9.33162 49.9517 9.1613L50.1665 9.80805C50.1081 9.37075 50.3346 9.40067 50.3976 9.03701C50.575 9.17971 50.7641 9.1613 50.7711 9.1636L50.8552 9.19122C50.8645 9.19582 50.8855 9.20733 50.8926 9.21194C51.084 9.34773 51.0373 9.34313 51.0817 9.48122C51.0957 9.46511 51.1143 9.41448 51.1214 9.43059C51.2007 9.60781 51.0373 9.25106 51.4319 9.3086C51.4435 9.3109 51.4692 9.32241 51.4809 9.32471C51.4926 9.32702 51.5183 9.33622 51.5299 9.33622L51.7447 9.27868C51.8988 9.21194 51.7097 9.25336 51.8685 9.22805L52.0132 9.25797C52.0272 9.26717 52.144 9.46051 52.2934 9.56868C52.0716 8.41789 52.0599 9.50194 52.0436 8.5813C52.0412 8.52146 52.1323 8.41328 51.8474 8.21535C51.5953 8.04042 51.8148 8.21995 51.8148 8.21995C52.0389 7.36376 50.8972 7.32233 50.8015 7.23257C50.491 6.94487 51.2871 7.33614 50.0941 6.66637L49.5851 6.47074C49.4053 6.4224 49.1392 6.33955 48.9921 6.30732C48.4668 6.19685 46.4566 6.05185 45.6511 6.4155C45.3383 6.5559 45.3733 6.53288 45.1865 6.53518C44.8386 6.53979 44.5188 6.63415 44.29 6.91264L44.234 7.0001C44.0985 7.23257 44.3927 6.87582 44.1686 7.1451L43.8908 7.36836C43.5896 7.77344 43.8511 7.2786 43.8511 7.68598L43.788 7.91614C43.6059 8.19003 43.4378 8.08416 43.2184 8.50074L43.223 8.49154Z" fill="#EA8613"/>
<path fill-rule="evenodd" clip-rule="evenodd" d="M12.9091 30.3222C13.1052 30.0045 13.5418 29.4936 13.7963 29.1483C14.6251 28.0229 14.8306 27.8249 15.9559 27.0861C16.2781 26.8744 16.9949 26.3933 17.1653 26.1632C16.9528 25.3162 15.8018 23.9974 15.4796 23.4312L13.6936 24.6349C12.7714 25.2356 13.1683 25.0193 12.3278 26.368C11.3309 27.9699 11.3892 27.4083 12.3651 29.3072C12.5192 29.6064 12.6827 30.0368 12.9115 30.3222H12.9091Z" fill="#979191"/>
<path fill-rule="evenodd" clip-rule="evenodd" d="M40.5404 13.0947L40.6665 12.425C40.6362 13.6747 41.0984 13.4216 41.4276 13.9647C41.549 14.1673 41.5537 14.8163 41.6821 15.2881C41.7405 15.5068 42.3475 16.5724 42.3382 16.8739C41.7965 17.1156 41.1101 16.6691 40.893 16.3768C41.1031 15.9349 41.0494 16.241 41.0564 16.2433C40.1902 16.1996 40.3093 15.9188 40.2323 14.8255C40.1972 14.3169 40.3046 14.188 40.2953 13.7231C40.2766 12.6436 40.5428 13.0947 40.5428 13.0947H40.5404ZM40.5288 11.1614L40.2579 12.1096C39.9474 14.0453 39.4081 15.9395 41.0004 16.8463C41.528 17.1478 42.1467 17.2031 42.8121 17.1087C42.6977 16.6967 42.2705 16.2364 42.2588 15.8359C41.9553 15.539 41.8315 14.9176 41.7592 14.5148C41.5817 13.5297 41.6891 13.967 41.1918 13.3525C40.9513 13.0533 40.7249 12.5216 40.872 12.059C41.0728 11.4307 41.514 11.6102 42.1677 11.5181L42.2821 11.0785L41.521 11.1798C41.7311 9.8794 42.616 8.30972 43.4822 7.854C43.3935 8.04964 41.9273 9.63543 41.9833 10.7816C42.3965 10.8185 43.4355 10.6044 44.1966 10.5791C44.6635 10.563 44.6659 10.6343 44.7733 10.22L44.6402 10.2891C44.2386 10.51 44.2993 10.4134 43.6269 10.4249C43.2487 10.4318 42.5623 10.5653 42.3055 10.5146C42.3078 10.1395 42.5086 9.79424 42.6697 9.45131L43.23 8.49154C43.4495 8.07495 43.6176 8.18083 43.7997 7.90694L43.8627 7.67678C43.8627 7.2717 43.6012 7.76424 43.9024 7.35916L44.1803 7.1359C44.4044 6.86662 44.1102 7.22566 44.2456 6.9909L44.3017 6.90344C44.5305 6.62495 44.8503 6.53058 45.1982 6.52598C45.3826 6.52368 45.3499 6.54669 45.6628 6.4063C46.4659 6.04265 48.4785 6.18765 49.0038 6.29812C49.1508 6.33034 49.417 6.4132 49.5968 6.46154L50.1057 6.65717C51.2988 7.32463 50.5026 6.93566 50.8132 7.22336C50.9089 7.31313 52.0506 7.35455 51.8264 8.21075C51.8264 8.21075 51.6093 8.03352 51.8591 8.20614C52.144 8.40408 52.0529 8.51226 52.0552 8.5721C52.0716 9.49504 52.0833 8.40868 52.305 9.55948C52.5292 9.70218 52.5642 9.89781 52.6109 10.151C52.6856 10.5722 52.7276 10.5215 52.4615 10.7264C52.1299 11.0072 52.8234 10.7126 52.3097 10.7816L51.3455 10.7402C50.505 10.6988 50.3602 10.51 50.1781 9.80115L49.9633 9.1544C49.7462 9.32472 49.6458 8.89662 49.7952 9.4421L50.3135 10.8092C51.4319 10.9473 52.2233 11.357 53.1642 11.4997C53.0872 10.6274 52.8817 10.0221 52.5105 9.28329C52.3728 9.0094 52.221 8.85059 52.1276 8.58361L52.4264 8.88972C52.9564 9.58019 53.5448 11.0394 53.4934 11.8956L53.0055 11.7897L52.9214 12.2109C53.5401 12.1764 54.0724 12.3099 54.1588 12.8669C54.2639 13.5412 53.7596 13.852 53.6055 14.2432L53.9954 14.2662C54.3316 13.7231 54.0537 13.5919 54.3993 13.5274C54.411 13.967 54.5721 15.5482 54.3129 15.8451C54.0748 16.1213 53.9557 15.9832 53.916 16.4758C54.3946 16.3008 54.7121 15.9579 54.7191 15.302C54.7261 14.6897 54.7051 14.0706 54.6538 13.486C54.1261 7.66067 49.0925 4.1047 43.9444 6.86662C42.4339 7.67908 41.1288 9.31321 40.5358 11.1614H40.5288Z" fill="#D8AC30"/>
<path fill-rule="evenodd" clip-rule="evenodd" d="M31.3767 10.7609C32.1028 10.5469 31.923 10.2246 32.5977 9.85409C33.4242 9.39837 33.6203 9.76432 34.2904 9.82877C35.1192 9.80575 34.5145 10.1234 35.0468 10.2085C35.4321 10.2707 35.8663 10.296 36.2352 10.1809C36.506 9.82186 36.5504 8.77234 36.3099 8.2798C35.9807 7.60773 36.2305 7.07146 35.3434 6.99321C34.6803 6.93336 31.4304 7.01852 30.9611 7.14051C30.9144 7.19805 30.9097 7.18654 30.8537 7.30392L30.807 7.43051C30.5292 8.31432 30.3494 8.74932 30.4358 9.78504L30.7813 9.94155C30.6623 10.3742 30.744 10.3144 30.9074 10.6619C31.407 10.6205 31.2996 10.2431 31.8039 10.5469L31.5471 10.6573C31.4747 10.6919 31.4607 10.6965 31.372 10.7563L31.3767 10.7609Z" fill="#FBB211"/>
<path fill-rule="evenodd" clip-rule="evenodd" d="M9.7059 22.5336C10.1145 22.2205 10.5254 21.4495 11.1698 20.9823C11.4943 20.7475 12.8718 19.9051 13.0212 19.4885C13.1122 19.2377 13.0726 19.1824 12.7247 18.7221L11.004 16.2295C10.8709 16.0983 10.9433 16.1282 10.7518 16.0868C10.5534 16.2249 10.6935 16.2295 10.0351 16.722C9.76193 16.9269 9.55881 17.0834 9.25997 17.3043C9.09187 17.4286 8.08094 18.6554 8.05292 18.7981C8.01323 18.9937 8.68796 20.4161 8.81871 20.6578C9.12922 21.2378 9.39538 21.9536 9.7059 22.5359V22.5336Z" fill="#979191"/>
<path fill-rule="evenodd" clip-rule="evenodd" d="M3.08234 10.8898C3.19207 11.3041 3.39752 11.5273 3.57263 11.8611C3.81544 12.3214 4.93143 14.4204 5.12754 14.5701C5.57581 14.1374 6.04975 13.4929 6.44899 12.9727C6.77585 12.547 7.90352 12.2063 8.25839 11.8358C8.20936 11.5596 6.42564 8.29821 6.25054 8.12329C5.92601 8.29361 3.21308 10.6689 3.08234 10.8898Z" fill="#979191"/>
<path fill-rule="evenodd" clip-rule="evenodd" d="M10.927 5.94136L12.9418 8.82295C13.0189 8.91041 13.0142 8.90121 13.0796 8.96565C13.7566 8.80224 15.1551 8.23144 15.8415 8.08414C16.2314 8.00128 16.5583 7.95065 16.8081 7.69517C16.7497 7.63533 16.4252 7.11977 16.3388 6.98858L14.8469 4.67318C14.3333 4.65477 11.5667 5.72501 10.9246 5.94136H10.927Z" fill="#979191"/>
<path fill-rule="evenodd" clip-rule="evenodd" d="M8.98214 30.6536C9.24362 30.3728 9.73391 29.2335 9.97439 28.7847C10.2009 28.3612 11.1884 27.5096 11.2024 27.1851C11.2118 26.9687 9.52379 23.3552 9.46075 23.2609C9.22261 23.5348 9.0942 23.6867 8.86774 24.002L7.63267 25.6292C7.40854 25.9422 7.1704 26.0987 7.44823 26.5637C8.53387 28.3796 8.31441 28.4233 8.67396 30.2462C8.744 30.6076 8.72065 30.5178 8.98214 30.6536Z" fill="#979191"/>
<path fill-rule="evenodd" clip-rule="evenodd" d="M20.623 19.7072C20.7771 20.0202 22.2573 21.6681 22.7243 22.163L26.7446 20.3309C26.6069 20.0409 26.6769 19.6312 26.5042 19.3136C26.4248 19.1686 25.9858 18.828 25.8318 18.7083C25.2201 18.2342 25.178 17.7831 24.2395 18.2019C23.6862 18.4482 23.0511 18.7221 22.4488 18.9661C21.8511 19.21 21.2394 19.5277 20.6207 19.7072H20.623Z" fill="#979191"/>
<path fill-rule="evenodd" clip-rule="evenodd" d="M30.4802 10.8921C29.5673 10.899 29.1611 10.83 28.4303 11.12C28.2038 11.2097 27.8209 11.4721 27.6995 11.5918C27.5011 11.7851 27.3937 12.1281 27.3376 12.4296C27.5618 12.6551 27.319 13.2236 28.4653 13.4354C28.8669 13.509 30.0179 13.4975 30.3448 13.173L29.9572 12.7725C29.649 12.8876 29.1144 13.1408 28.7151 12.9912C28.2949 12.8347 28.1244 12.4549 28.2015 12.0383C28.2809 11.601 28.6054 11.41 29.021 11.3087C29.7354 11.1338 29.9338 11.4767 30.5549 11.3409C30.4662 11.647 29.9572 12.0659 30.4451 12.7817C31.1689 13.8427 34.5449 13.1937 34.0966 11.9946L34.2064 11.9762C34.0429 11.5573 34.1457 11.8012 33.7418 11.479L34.127 11.3501C33.4569 11.4445 33.8702 11.5895 33.1674 11.3823C31.309 10.8369 31.1456 12.0912 31.5238 12.4664C32.1845 12.8347 32.5814 12.3099 32.9783 12.3283C32.6818 12.5239 32.5581 12.8277 31.9674 12.8047C31.5308 12.7886 31.1806 12.593 31.1105 12.2063C30.9168 11.1729 32.1028 11.0739 32.9806 11.1292L32.9456 10.4364C33.1698 10.3351 33.3775 10.2707 33.6274 10.3742C33.2725 10.4801 33.3916 10.3282 33.0717 10.5768C33.0017 11.4399 34.19 11.1913 34.8998 11.1821C34.9115 10.7747 34.4842 10.2223 34.2531 10.075C33.9706 9.89782 33.2631 9.73671 32.8569 9.8679C32.3479 10.0313 32.2499 10.5354 31.9627 10.7333L30.7627 11.2627C30.6553 11.1407 30.737 11.2304 30.6319 11.0923L30.4825 10.8967L30.4802 10.8921Z" fill="#863329"/>
<path fill-rule="evenodd" clip-rule="evenodd" d="M5.38434 21.0191C5.83261 20.5749 6.15246 20.1629 6.58438 19.7187C7.59531 18.6807 7.50193 18.8257 7.10503 18.2411C6.92992 17.9833 6.79217 17.691 6.62641 17.4447C6.46064 17.1961 6.29021 16.9453 6.12678 16.6783C5.95401 16.3952 5.78591 16.1765 5.61781 15.9164C5.43804 15.638 5.30029 15.394 5.13219 15.1454C4.86137 15.2674 4.71428 15.4101 4.44112 15.5758C4.12827 15.7668 4.08391 15.9141 3.91581 16.241C3.45587 17.1317 3.41852 17.0304 4.21699 18.6231C4.49015 19.1686 5.0855 20.6117 5.38434 21.0191Z" fill="#979191"/>
<path fill-rule="evenodd" clip-rule="evenodd" d="M52.4451 13.1131C52.0225 13.0556 51.8965 13.074 51.7704 12.6758C52.1953 12.7748 52.1276 12.7633 52.5479 12.6689L52.4451 13.1131ZM42.2541 15.8336L42.2121 15.2513L42.5249 15.2997C41.995 14.5309 41.9133 14.3836 42.1374 13.4492C41.8829 13.5712 42.2028 13.5827 41.7732 13.6586C40.1949 12.4411 41.4393 11.1246 42.3288 11.8404C42.6277 12.0797 42.4666 11.9808 42.7701 12.0452L43.0783 12.1465C42.7514 12.494 42.7 12.2408 42.3452 12.4342C42.7444 12.5469 42.7467 12.4825 43.1203 12.4618C43.1483 12.6413 43.1623 12.7932 43.2837 12.952L43.3678 13.028C43.3748 13.0372 43.3958 13.0533 43.4121 13.0625C42.4876 10.5952 45.2402 11.2442 45.399 12.6758C45.5764 12.3145 44.7966 11.5296 44.4838 11.3846C43.5149 10.9404 43.732 11.7069 42.6043 11.1384C42.8191 11.6539 43.104 11.4261 43.1717 11.7115C42.9755 11.9393 42.8658 11.8956 42.5063 11.8219L42.3825 11.0187L44.7196 10.7425C44.8293 10.5745 45.3289 9.83797 45.3523 9.75281L45.1585 10.777C45.9827 10.7862 46.7228 10.7471 47.5259 10.7793C48.3477 10.8115 48.9711 10.9542 49.7182 11.0279L49.7088 10.0428C49.8186 10.1625 49.7509 10.0382 49.8746 10.2845L50.1478 11.0233C51.028 11.0992 51.9899 11.3409 52.786 11.6746L52.6389 12.5815C52.4591 12.5838 52.3167 12.5999 52.1416 12.5631C51.8521 12.5032 51.9268 12.517 51.7844 12.3812C51.8591 12.2017 51.5976 12.3812 52.1393 12.1419C52.3471 12.0498 52.3191 12.1004 52.4638 11.9025C51.7517 11.9992 52.0833 12.1971 51.4342 11.8173C50.477 11.2581 49.1532 12.662 49.2466 13.0464C49.4264 12.4871 50.1758 11.7506 51.0069 11.845C52.1323 11.9716 51.5603 13.2558 51.175 13.6977L51.2731 13.7047L51.7284 13.0717C52.0552 13.2029 52.2537 13.3732 52.4965 13.0878L52.8444 12.4019C53.6685 12.3053 54.2289 12.7403 53.846 13.4745C53.6895 13.8635 53.3907 14.1581 53.0195 14.3376L52.7883 14.432C52.7697 14.4389 52.7463 14.4504 52.73 14.455L52.6132 14.5056C52.709 15.1086 52.5152 15.2628 52.3634 15.7116C52.3798 15.7208 52.4101 15.707 52.4148 15.7278C52.4802 15.9648 52.3471 15.6702 52.5035 15.76C52.5992 15.8152 52.5198 15.615 52.5899 15.8497C53.0918 15.3986 52.7767 14.455 53.6008 14.2432C53.7549 13.852 54.2592 13.5389 54.1541 12.8669C54.0654 12.3076 53.5354 12.1741 52.9167 12.2109L53.0008 11.7897L53.4887 11.8956C53.5401 11.0371 52.9518 9.57789 52.4218 8.88972L52.1229 8.5836C52.2163 8.85059 52.3657 9.0094 52.5058 9.28329C52.8771 10.0221 53.0825 10.6297 53.1596 11.4997C52.2187 11.357 51.4272 10.9473 50.3089 10.8092L49.7906 9.4421L49.5851 8.99099L49.5664 9.46742L49.5804 10.7586C48.8777 10.7034 48.2543 10.5492 47.5212 10.5192C46.8068 10.4893 46.0947 10.5377 45.3756 10.5146L45.7842 8.83678C45.7328 8.47543 45.8379 8.60202 45.6068 8.7148C45.5928 8.90353 44.897 10.0981 44.7686 10.2154C44.6612 10.6297 44.6612 10.5607 44.1919 10.5745C43.4308 10.5998 42.3919 10.8138 41.9786 10.777C41.9226 9.62853 43.3911 8.04503 43.4775 7.8494C42.6113 8.30281 41.7265 9.8725 41.5163 11.1752L42.2775 11.0739L42.1631 11.5135C41.5093 11.6056 41.0681 11.4261 40.8673 12.0544C40.7202 12.517 40.9467 13.051 41.1872 13.3479C41.6844 13.9624 41.5771 13.5251 41.7545 14.5102C41.8269 14.9107 41.9506 15.5344 42.2541 15.8313V15.8336Z" fill="#381704"/>
<path fill-rule="evenodd" clip-rule="evenodd" d="M32.2312 28.0252C33.4102 28.3106 34.3371 27.9607 34.7667 27.9791C35.2827 28.0022 36.4174 28.4141 37.2812 27.8917C37.3279 27.3646 37.015 27.0631 37.1551 26.7455C36.9427 26.6695 36.6532 26.5521 36.4874 26.4532C35.1589 25.6476 34.8881 26.0182 33.2515 25.9906C32.8382 25.9837 32.5301 25.8962 32.4063 26.2069C32.3293 26.4025 32.1822 27.7858 32.2289 28.0252H32.2312Z" fill="#173B89"/>
<path fill-rule="evenodd" clip-rule="evenodd" d="M31.867 6.67101C33.046 6.64109 32.2289 6.67331 32.9433 6.34188C33.4172 6.12093 34.0569 5.84704 34.4655 5.53632C34.4959 5.09902 33.7581 2.93322 33.5806 2.44528C32.7892 2.78822 31.3884 4.03798 31.2436 4.12314C30.6926 4.44767 30.758 4.45457 31.1992 5.35219C31.4351 5.83323 31.7759 6.32807 31.867 6.67101Z" fill="#979191"/>
<path fill-rule="evenodd" clip-rule="evenodd" d="M26.5042 14.9084C26.8217 15.0741 26.6652 15.0833 27.0061 15.1431C27.403 14.5585 27.4474 14.4251 28.3509 14.4412C28.017 13.1039 27.5828 13.7599 27.1579 12.8531C27.0481 12.5654 26.2707 11.3064 25.9672 11.12C25.8131 11.2926 25.2131 11.4031 24.8909 11.4997L23.971 11.7759C23.9453 11.7851 23.8706 11.8104 23.8473 11.822C23.6371 11.9094 23.7749 11.8381 23.6651 11.914C23.9196 12.3559 26.4224 14.5839 26.5065 14.9107L26.5042 14.9084Z" fill="#979191"/>
<path fill-rule="evenodd" clip-rule="evenodd" d="M26.0209 10.8921C26.6255 10.8783 26.4294 10.7149 26.8613 10.5768C26.8917 9.66994 27.0505 8.83446 27.5968 8.39255C27.7088 8.14398 27.9843 7.92073 28.2225 7.77343L28.0357 7.18882C28.0264 7.17271 28.0147 7.15199 28.0077 7.13819L27.5758 6.39017C27.2092 6.47302 24.8745 7.97827 24.5757 8.21533C24.7251 8.69176 25.9251 10.5538 26.0232 10.8944L26.0209 10.8921Z" fill="#979191"/>
<path fill-rule="evenodd" clip-rule="evenodd" d="M19.7381 11.2742C20.3755 11.2949 21.1226 11.1223 21.8861 11.1269C21.6456 10.5929 20.2308 8.80456 19.8362 8.06805L17.1933 7.90463C17.1933 8.21995 17.261 8.20844 17.4174 8.37646L19.7381 11.2765V11.2742Z" fill="#979191"/>
<path fill-rule="evenodd" clip-rule="evenodd" d="M43.9001 27.8065C44.7733 28.2162 45.999 27.8203 46.4402 27.8134C47.143 27.8065 48.2216 28.0965 49.1672 27.7329C49.1882 27.3117 49.2139 25.933 48.8193 25.7857C48.8053 25.7811 46.8955 25.7926 46.3679 26.1793C46.3282 26.2092 46.062 26.4279 46.0597 26.4302C45.9173 26.5176 45.8636 26.5015 45.6675 26.6028C45.5344 26.6718 45.4223 26.7731 45.3079 26.8721L43.9001 27.8065Z" fill="#173B89"/>
<path fill-rule="evenodd" clip-rule="evenodd" d="M45.7795 8.84138L45.371 10.5192C46.09 10.5423 46.7998 10.4939 47.5166 10.5238C48.2473 10.5538 48.873 10.7057 49.5758 10.7632L49.5618 9.47202C49.5431 9.449 49.5314 9.41678 49.5197 9.39146C49.5081 9.36845 49.4917 9.34313 49.48 9.31551C49.4684 9.28789 49.459 9.26948 49.4474 9.24186C49.4357 9.21654 49.431 9.19813 49.4217 9.17051L49.2979 8.64115C49.2676 8.70329 49.3143 8.68257 49.2232 8.70329L49.1509 8.70559C48.4901 8.66416 47.4115 8.5721 46.5967 8.7194L46.4216 8.56289C46.0527 8.49845 46.3889 8.59511 46.0807 8.41559C46.0527 8.47313 46.034 8.54678 45.9873 8.61583C45.8729 8.78384 45.9266 8.7194 45.7819 8.84138H45.7795Z" fill="#FBB211"/>
<path fill-rule="evenodd" clip-rule="evenodd" d="M29.154 27.1045L31.0218 26.2621C31.1409 26.2115 31.2413 26.1678 31.3533 26.1079C31.7082 25.9146 31.7736 25.7995 31.7853 25.1436C31.1269 25.2978 30.849 24.9917 30.7463 24.3656C29.5439 24.269 30.3494 23.4404 28.8575 24.0641C28.533 24.1999 28.435 24.2068 28.3556 24.5106C28.0824 25.5648 28.3229 25.6315 28.9649 26.8168L29.154 27.1022V27.1045Z" fill="#979191"/>
<path fill-rule="evenodd" clip-rule="evenodd" d="M44.1032 28.1747L44.1639 29.7053C44.7032 30.0022 45.8169 29.9539 46.2838 29.6293L46.4029 28.5752C46.4613 28.665 46.4449 28.6051 46.4823 28.7709L46.5196 29.6432C47.2037 29.8595 47.9415 29.8848 48.6185 29.6639L48.5065 28.2392C46.2348 27.9423 45.8169 28.3128 44.1055 28.1793L44.1032 28.1747Z" fill="#F1C691"/>
<path fill-rule="evenodd" clip-rule="evenodd" d="M39.177 32.0345C39.4571 32.7273 39.819 32.4097 39.6182 33.7653C39.6135 33.7953 39.5925 34.03 39.5809 34.0692L39.5178 34.1911C39.5085 34.2049 39.4595 34.2418 39.4408 34.2602C39.791 34.251 39.9754 34.1474 40.1645 34.152C40.3653 34.1543 40.5801 34.2694 40.8836 34.2763C41.4346 34.2901 42.0393 34.2786 42.5926 34.2717C42.2961 33.8505 41.8198 33.5674 42.3078 32.9114C42.4175 32.7664 42.7701 32.4903 42.8962 32.3913C43.2113 32.145 43.2043 32.0115 43.3934 31.6502C42.6744 31.6663 41.7965 31.8159 41.1404 31.9954C40.8299 32.0806 40.4003 32.2877 40.1599 32.2923C39.9731 32.2946 39.4851 32.0921 39.1746 32.0368L39.177 32.0345Z" fill="#4B4745"/>
<path fill-rule="evenodd" clip-rule="evenodd" d="M32.509 30.7157C33.1954 30.7502 33.2048 30.8354 33.7838 30.9689L33.4943 31.5282C33.3425 31.5075 32.6655 31.2773 32.502 31.2014L32.509 30.7157ZM33.8632 29.9056L34.3464 29.9079C34.162 29.8342 34.3231 29.8687 34.218 30.0183C34.5192 30.0529 34.3418 29.9309 34.4819 30.1035L34.3558 30.8101C33.6997 30.9459 33.4359 30.4787 32.6281 30.5224C32.4133 30.4602 32.5254 30.6375 32.4483 30.4257C32.1728 30.9229 32.2709 30.6375 32.2872 31.2796C31.5798 31.5926 32.1495 31.5213 31.2483 31.5029C30.7603 31.4914 30.4895 31.7215 30.1696 31.901C29.9012 32.4005 29.6747 32.8171 29.8405 33.4454C30.0202 34.1267 30.5012 33.9287 30.8607 34.2763L31.5985 34.274C30.793 33.816 30.116 34.0714 30.0156 33.061C31.1199 33.5444 31.9464 33.9541 33.2445 33.3303C33.2445 33.2176 33.2725 33.2475 33.1557 33.2406C32.2452 33.641 30.6576 33.4293 30.0296 32.7803C30.0763 32.2463 30.5222 31.7699 31.0825 31.7192C31.8553 31.6502 31.7059 32.0506 32.5977 32.2187L32.4273 32.0921C32.3409 32.046 32.3386 32.0553 32.2616 32.0253C32.1682 31.9908 32.1028 31.9816 32.0281 31.9402C31.874 31.8527 31.9674 31.9033 31.867 31.7952C32.4063 31.5949 32.7845 31.8941 33.1557 32.1335C33.0834 31.9885 33.1861 32.076 32.9947 31.9379C32.6865 31.7146 32.46 31.7975 32.2102 31.5972C32.6795 31.3579 33.4172 31.6548 33.4779 32.1427L33.6157 31.7284C33.8071 31.1645 34.0406 31.107 34.5145 31.0034C34.6103 31.2796 34.7293 31.3648 34.671 31.8136C34.6243 32.1657 34.6593 31.977 34.5122 32.1979C34.4048 32.3568 34.3464 32.2785 34.4258 32.389L34.5799 32.2325C34.7013 33.1462 33.6647 33.9449 33.0437 34.2349L33.4803 34.274L33.8702 33.9334C33.8842 33.9218 33.9005 33.908 33.9145 33.8965L34.0476 33.7884C34.0593 33.7768 34.078 33.763 34.0896 33.7515L34.6826 33.0634C34.9044 33.2037 34.7854 33.1416 34.9091 33.3511C35.1052 33.6825 35.4228 33.984 35.6842 34.2832C35.843 34.274 35.85 34.3016 36.0111 34.175C35.6982 34.0116 34.5356 32.8608 34.9138 32.1657C34.8554 31.7353 34.7644 31.3993 35.1052 31.0264C35.6189 30.7825 35.8383 31.6939 36.1488 31.9287L36.2492 31.855C36.2586 31.8389 36.2749 31.8205 36.2819 31.8113L36.4687 31.5581L36.1465 31.618C35.9551 31.4039 35.9247 31.2934 35.913 31.0426C36.422 30.8469 36.6461 30.8377 37.2158 30.8999C37.1995 30.8837 37.1761 30.863 37.1621 30.8515L37.0687 30.7572C36.8936 30.5822 37.1574 30.9091 36.9543 30.6306C36.464 30.6651 36.2936 30.6674 35.857 30.84C35.4438 31.0034 35.5208 30.8308 35.0469 30.7134C34.9698 29.8918 34.79 30.5339 34.7574 29.8687C36.0414 30.0437 35.8687 30.1426 37.1598 29.8342C36.8096 29.5258 36.9893 29.9125 36.8936 29.6225C36.8843 29.5925 36.8563 29.5972 36.8376 29.5833C36.7279 30.1219 35.3107 29.8503 34.9395 29.7283C34.7247 29.4084 34.769 28.7686 34.734 28.3106L35.1589 28.3681C34.8951 28.1471 34.5449 28.1425 34.2787 28.3681C34.783 28.3428 34.7247 28.375 34.6967 28.909C34.6803 29.2266 34.7153 29.4614 34.6126 29.703C34.3558 29.802 34.0289 29.7652 33.8632 29.901V29.9056Z" fill="#381704"/>
<path fill-rule="evenodd" clip-rule="evenodd" d="M43.0199 21.7119L43.6129 21.4403C43.5686 20.759 43.3981 21.0375 43.4985 20.0386C43.5242 19.7878 43.69 19.8683 43.4051 19.7486C44.0425 19.6382 44.1499 19.8821 44.311 20.2251C44.318 20.2412 44.3273 20.2688 44.3414 20.2895L44.8643 20.2274C45.1165 19.5921 44.841 19.5346 44.5585 19.1594C45.0301 19.2515 44.7079 19.3274 45.1445 19.4149C45.8029 18.828 45.1842 18.5955 44.6822 18.3907C45.0231 18.3861 45.1118 18.4574 45.35 18.4229C45.3453 18.0478 45.2239 18.0616 44.9671 17.8935C45.2309 17.6703 46.3772 16.699 45.2706 16.5586C44.9857 16.8463 44.7896 17.1939 44.3647 17.5253C43.9164 17.8728 43.6199 18.0063 43.3024 18.3746C42.6674 19.1065 42.9359 20.2665 43.0152 21.7096L43.0199 21.7119Z" fill="#F1C691"/>
<path fill-rule="evenodd" clip-rule="evenodd" d="M22.9647 15.2974L25.5376 17.5759C25.8294 17.5115 26.0652 17.355 26.3641 17.2123L27.1485 16.7934C26.9804 16.4873 27.0271 16.6185 26.7633 16.3791L25.9181 15.6311C25.7524 15.47 25.6543 15.3572 25.4699 15.2099C24.6644 14.5632 24.4799 14.8025 23.3126 15.1662L22.9647 15.2974Z" fill="#979191"/>
<path fill-rule="evenodd" clip-rule="evenodd" d="M42.1304 22.7269L42.7561 22.2896C42.644 22.4599 42.581 22.476 42.5039 22.6671C43.1413 22.1745 42.8915 22.4829 43.4612 22.2367L46.8815 20.6256C47.8247 20.1215 50.8599 18.8763 51.4225 18.4459C51.1844 18.2894 51.3525 18.4505 51.1774 18.1951L46.4356 20.1744C45.2005 20.6785 42.5413 21.8201 42.1327 22.7246L42.1304 22.7269Z" fill="#D8D7D8"/>
<path fill-rule="evenodd" clip-rule="evenodd" d="M40.1879 11.4698C40.0922 11.5043 38.8688 11.7207 38.6283 11.7621C38.5746 11.2926 38.6843 11.1913 39.1279 11.1384C39.4641 11.0992 39.9147 11.0233 40.1856 11.1107L40.1902 11.4698H40.1879ZM38.5769 10.7241C38.5162 11.3501 38.4322 11.2189 37.7551 11.2005C37.3232 11.189 36.8866 11.1867 36.4757 11.1752C36.5878 10.5008 36.6251 10.609 37.2648 10.6297C37.7481 10.6458 38.138 10.6642 38.5746 10.7264L38.5769 10.7241ZM38.9692 9.73899C38.9435 10.0451 38.8104 10.2131 38.717 10.4295C38.4252 10.4939 37.0734 10.4525 36.7675 10.3627L36.8889 9.49733C36.8376 7.61232 36.4313 7.55708 36.45 7.08065C36.8796 7.08526 37.6781 7.30161 37.9909 7.51565C38.1707 7.63994 37.9886 7.53867 38.1754 7.65605C38.3902 7.79185 38.2758 7.69978 38.4415 7.78034C38.7707 7.94375 38.3411 7.61693 38.6493 8.02891C38.7637 8.18312 38.8594 8.24296 38.9458 8.4478C39.1559 8.94955 39.191 9.4651 38.9715 9.73669L38.9692 9.73899ZM36.1372 6.96327C36.3893 8.03812 36.9543 8.65725 36.5364 10.0819C36.6648 10.3811 36.471 10.6366 36.3146 10.7977L36.2329 11.0601L36.2142 11.2673C36.2889 11.2765 36.3309 11.2696 36.38 11.2926C36.5364 11.3639 36.4523 11.3179 36.5504 11.403L38.2127 11.4744C38.3785 11.5135 38.2664 11.4905 38.3341 11.5642L38.5629 11.815C38.759 11.937 38.8571 11.8887 38.9505 11.9002C39.2096 11.9347 39.2026 11.9301 39.4851 12.0659L39.9194 12.3076C39.9427 12.2961 39.9731 12.2523 39.9871 12.2707C40.0011 12.2892 40.0361 12.2431 40.0548 12.2339L40.2533 12.1119L40.5241 11.1637C40.321 11.0877 40.391 11.3455 40.3233 10.8576L38.9201 10.9243C39.0999 10.0129 39.8657 9.19352 39.0205 7.92304C38.5979 7.2855 37.3535 6.93795 36.3333 6.75153C36.2772 7.152 36.4804 6.95407 36.1348 6.96788L36.1372 6.96327Z" fill="#0F132E"/>
<path fill-rule="evenodd" clip-rule="evenodd" d="M31.2903 19.3137C31.4724 19.4587 31.9837 19.6681 32.2592 19.675L31.1572 19.5507L40.0875 22.5773C40.3887 22.6095 40.2929 22.529 40.5848 22.7637C40.8066 22.7223 40.6011 22.8374 40.7039 22.6832L40.7272 22.6164C40.9397 22.7868 40.8603 22.7845 41.1475 22.8604C40.6688 21.8063 35.4414 20.5036 33.9005 20.0133C33.4709 19.8752 33.0413 19.7579 32.6071 19.6267L31.6522 19.2929C31.4584 19.2377 31.3907 19.263 31.2903 19.3137Z" fill="#D8D7D8"/>
<path fill-rule="evenodd" clip-rule="evenodd" d="M30.1486 11.525C29.8008 13.364 28.6894 12.5815 28.6404 12.5078C28.4023 12.1442 28.575 11.7713 28.8972 11.5826C29.2755 11.3616 29.7331 11.4767 30.1486 11.525ZM27.34 12.4296V12.9198L27.1555 12.8507C27.5828 13.7576 28.0147 13.1016 28.3486 14.4388C27.445 14.4227 27.4007 14.5585 27.0038 15.1408C26.6629 15.081 26.8193 15.0718 26.5018 14.9061C26.5485 15.1339 26.5088 15.0396 26.5835 15.1846L27.1065 15.2812C27.1929 15.5505 27.1439 15.5919 27.3423 15.8428C27.3517 15.8566 27.3727 15.8796 27.3913 15.8935C27.1065 14.8762 27.2723 14.57 28.428 14.6023C28.54 14.7381 28.7922 15.1155 28.8926 15.1961C28.8645 15.0142 28.6894 14.7265 28.6007 14.5079C28.4933 14.2432 28.3766 13.99 28.3089 13.7254L29.2801 13.7553C29.1564 13.9486 29.0817 14.4135 29.1611 14.6506C29.3058 15.0833 29.1727 14.7795 29.3432 14.8715C29.2451 14.3767 29.2288 13.9417 29.6467 13.7392C30.144 13.4998 30.6366 13.8059 30.9961 13.9302C31.0218 13.8427 31.0919 13.9716 30.9378 13.8588L30.3354 13.4653C31.3043 13.3272 31.3907 13.8151 32.9783 13.3663C33.653 13.1753 34.7317 12.5055 34.2064 11.9692L34.0966 11.9877C34.5472 13.1868 31.1689 13.8358 30.4451 12.7748C29.9572 12.059 30.4662 11.6401 30.5549 11.334C29.9338 11.4698 29.7354 11.1269 29.021 11.3018C28.6054 11.4053 28.2809 11.5964 28.2015 12.0314C28.1244 12.448 28.2949 12.8277 28.7151 12.9842C29.1144 13.1338 29.649 12.8807 29.9572 12.7656L30.3447 13.1661C30.0179 13.4929 28.8669 13.5044 28.4653 13.4284C27.3213 13.2167 27.5618 12.6482 27.3376 12.4227L27.34 12.4296Z" fill="#381704"/>
<path fill-rule="evenodd" clip-rule="evenodd" d="M40.5404 13.0947C40.5404 13.0947 40.2743 12.6436 40.2929 13.7231C40.2999 14.188 40.1925 14.3146 40.2299 14.8255C40.3069 15.9188 40.1879 16.1996 41.0541 16.2433C41.0494 16.241 41.1031 15.9349 40.8906 16.3768C41.1077 16.6691 41.7942 17.1156 42.3358 16.8739C42.3475 16.5724 41.7381 15.5068 41.6798 15.2881C41.5537 14.8163 41.549 14.1673 41.4253 13.9647C41.0961 13.4215 40.6338 13.6747 40.6642 12.425L40.5381 13.0947H40.5404Z" fill="#FBB211"/>
<path fill-rule="evenodd" clip-rule="evenodd" d="M42.4759 33.0219C44.2269 32.9713 43.8977 33.4961 44.6052 33.6227C45.1468 33.7193 46.0457 32.9414 46.2231 32.5317C46.2278 32.5478 46.2441 32.5524 46.2441 32.5754C46.2441 32.6007 46.2558 32.6192 46.2558 32.6284C46.2558 32.6422 46.2418 32.7411 46.2395 32.7665C46.536 32.465 46.3539 31.542 46.2184 31.1807L45.2519 31.4569C45.1585 31.8136 45.5017 32.0415 44.7452 32.5363C44.367 32.458 43.9024 31.9149 43.4331 32.1174C43.2394 32.2003 42.5856 32.778 42.4759 33.0242V33.0219Z" fill="#F09BA4"/>
<path fill-rule="evenodd" clip-rule="evenodd" d="M44.7663 10.22C44.8923 10.1003 45.5904 8.90582 45.6044 8.71939C45.462 8.56518 45.6208 8.66645 45.497 8.77693C45.2799 8.97256 45.6628 8.77002 45.3102 8.94264C45.2962 8.92883 45.2752 8.90812 45.2659 8.89891L45.1351 8.77693C44.9577 8.64113 44.9063 8.66875 44.6892 8.5951C43.8884 8.32121 44.6822 8.58129 43.6456 8.63883C43.4658 8.94264 43.6806 8.81836 43.3818 9.00709C43.3678 8.98867 43.3584 8.96106 43.3514 8.94494L43.2253 8.48923L42.665 9.44899C42.5063 9.79193 42.3031 10.1349 42.3008 10.5123C42.5576 10.563 43.244 10.4295 43.6222 10.4226C44.2946 10.4111 44.2339 10.5077 44.6355 10.2868L44.7686 10.2177L44.7663 10.22Z" fill="#FBB211"/>
<path fill-rule="evenodd" clip-rule="evenodd" d="M30.8584 34.2717C30.4989 33.9241 30.0179 34.1221 29.8381 33.4408C29.6724 32.8148 29.8988 32.3982 30.1673 31.8964C29.586 31.9655 28.9719 32.145 28.4723 32.3337C27.2676 32.7894 27.0528 33.6917 28.7385 34.198C29.1891 34.3315 30.3261 34.2694 30.8561 34.2694L30.8584 34.2717Z" fill="#4B4745"/>
<path fill-rule="evenodd" clip-rule="evenodd" d="M46.7671 32.6928C46.669 32.3268 46.7157 32.6237 46.8652 32.5018C47.0333 32.8861 48.0255 33.5858 48.4668 33.4385C48.6279 33.3856 49.0598 33.0633 49.2723 32.9644C49.7322 32.7526 50.1174 32.8723 50.491 32.771C50.3089 32.3706 49.9423 32.3522 49.7345 32.0023C49.0481 31.6755 48.7049 32.3015 48.1983 32.3706C48.0886 32.3038 47.9998 32.2002 47.8738 32.0714C47.638 31.8297 47.7057 32.0322 47.7337 31.6202C47.771 31.0817 47.5609 31.3924 47.1243 31.1047L46.6761 31.0909C46.6083 31.5397 46.4589 32.3798 46.7648 32.6882L46.7671 32.6928Z" fill="#F09BA4"/>
<path fill-rule="evenodd" clip-rule="evenodd" d="M27.1579 9.88399C27.1135 10.5008 27.0785 11.1545 27.3867 11.601C27.6201 11.525 28.0451 11.0486 28.5143 10.8852C29.028 10.7103 29.7284 10.7632 30.3004 10.731C30.242 10.6274 30.228 10.6044 30.1673 10.4709L30.0482 10.2407C30.0412 10.22 30.0366 10.1993 30.0319 10.1786L29.8591 9.36153C29.5416 9.62391 29.2871 9.37304 28.7618 9.40526C28.4746 9.42368 28.428 9.50653 28.1058 9.47891C27.6108 9.43518 27.898 9.33391 27.6855 9.29709C27.6855 9.29709 27.6201 9.35923 27.6061 9.37304C27.3026 9.73899 27.5594 9.73439 27.1555 9.88169L27.1579 9.88399Z" fill="#173B89"/>
<path fill-rule="evenodd" clip-rule="evenodd" d="M36.4127 32.6859C36.3263 32.87 36.2703 33.0288 36.2376 33.2889C36.429 33.6802 37.3512 33.7055 37.8345 33.6986C38.647 33.6848 38.9178 33.4938 39.5295 33.2751C39.4758 32.5708 38.9622 31.9793 38.2337 31.9977C37.5987 32.0138 38.1824 32.1059 37.2859 32.3038C36.7979 32.412 36.7138 32.6583 36.4127 32.6859Z" fill="#979191"/>
<path fill-rule="evenodd" clip-rule="evenodd" d="M28.4606 7.99208C28.8832 7.85859 29.579 7.27169 30.263 7.2901C30.1766 7.89542 29.9245 8.29129 29.9035 8.92193C29.8825 9.49502 30.0319 9.98296 30.1696 10.4709C30.2327 10.6067 30.2467 10.6274 30.3027 10.731C29.7284 10.7632 29.0303 10.7103 28.5167 10.8852C28.0451 11.0463 27.6201 11.525 27.389 11.601C27.0808 11.1545 27.1158 10.4985 27.1602 9.88399C27.1555 9.33161 27.2886 9.35002 27.5338 8.98867C27.5431 8.97486 27.5548 8.95415 27.5641 8.94034L27.6505 8.79074C27.7556 8.62732 27.6972 8.71478 27.7882 8.60661L28.0801 8.21074C27.6201 8.18542 27.8256 8.31431 27.6225 8.5951L27.5968 8.38796C27.0505 8.82986 26.8917 9.66534 26.8614 10.5722C26.4318 10.7126 26.6256 10.8737 26.0209 10.8875C25.9788 11.0233 25.9975 10.9888 25.9648 11.1153C26.2683 11.2995 27.0458 12.5607 27.1555 12.8484L27.34 12.9175V12.4273C27.396 12.128 27.5034 11.7851 27.7019 11.5895C27.8256 11.4698 28.2062 11.2074 28.4326 11.1176C29.1634 10.8276 29.5696 10.8944 30.4825 10.8898L30.4591 10.4479C30.3144 9.80574 30.0949 9.63082 30.1556 8.75852C30.2047 8.07264 30.4428 7.69518 30.5222 7.07835C30.0389 6.98859 29.2568 7.37526 28.8739 7.61693C28.8669 7.62153 28.6941 7.73431 28.6801 7.74351L28.4606 7.98748V7.99208Z" fill="#0F132E"/>
<path fill-rule="evenodd" clip-rule="evenodd" d="M28.4606 7.99209C28.3439 7.91613 28.1711 8.06574 28.0777 8.21074L27.7859 8.60661C27.6925 8.71249 27.7509 8.62733 27.6482 8.79074L27.5618 8.94034C27.5524 8.95415 27.5408 8.97487 27.5314 8.98868C27.2863 9.35003 27.1532 9.33161 27.1579 9.884C27.5618 9.7367 27.305 9.7436 27.6085 9.37535C27.6201 9.35923 27.6855 9.29939 27.6878 9.29939C27.9003 9.33622 27.6108 9.43519 28.1081 9.48122C28.4303 9.51114 28.477 9.42598 28.7641 9.40757C29.2895 9.37535 29.5439 9.62622 29.8615 9.36384L30.0342 10.1809C30.0389 10.2016 30.0436 10.2223 30.0506 10.243L30.1696 10.4732C30.0319 9.98297 29.8848 9.49733 29.9035 8.92423C29.9245 8.2959 30.1766 7.89772 30.263 7.2924C29.579 7.27169 28.8809 7.8609 28.4606 7.99439V7.99209Z" fill="#27176A"/>
<path fill-rule="evenodd" clip-rule="evenodd" d="M53.5938 14.2455C52.7696 14.4573 53.0848 15.4009 52.5829 15.852C52.5595 16.0523 52.5012 16.1443 52.3961 16.34L52.2607 16.6576C52.221 17.1939 53.6919 16.7681 53.909 16.4781C53.9487 15.9855 54.0677 16.1236 54.3059 15.8474C54.5627 15.5505 54.4039 13.9693 54.3923 13.5297C54.0467 13.5965 54.3246 13.7277 53.9884 14.2685L53.5985 14.2455H53.5938Z" fill="#FBB211"/>
<path fill-rule="evenodd" clip-rule="evenodd" d="M36.8913 9.49733L36.994 9.26717L37.1131 9.53646C37.2718 9.32701 37.0407 9.36614 37.3045 9.27638C37.4423 9.23035 38.068 9.29479 38.2968 9.21654L38.4065 9.1613C38.7287 8.97257 38.4018 8.95646 38.8011 8.95876C38.8874 9.159 38.9155 9.56178 38.9738 9.7367C39.1933 9.46281 39.1583 8.94955 38.9481 8.44781C38.8618 8.24296 38.7684 8.18082 38.6516 8.02892C38.3435 7.61693 38.773 7.94376 38.4438 7.78034C38.2781 7.69979 38.3925 7.78955 38.1777 7.65606C37.9933 7.53868 38.1754 7.63995 37.9933 7.51566C37.6804 7.30161 36.8819 7.08296 36.4523 7.08066C36.436 7.55709 36.8399 7.61233 36.8913 9.49733Z" fill="#27176A"/>
<path fill-rule="evenodd" clip-rule="evenodd" d="M33.1534 33.236C33.2795 32.5317 33.053 32.7181 32.6724 32.313L32.5954 32.2164C31.7035 32.0483 31.853 31.6479 31.0802 31.7169C30.5198 31.7675 30.0739 32.2417 30.0272 32.7779C30.6553 33.427 32.2429 33.6387 33.1534 33.2383V33.236Z" fill="#979191"/>
<path fill-rule="evenodd" clip-rule="evenodd" d="M30.5198 7.08295C30.4381 7.69978 30.2023 8.07724 30.1533 8.76312C30.0902 9.63542 30.312 9.81265 30.4568 10.4525L30.744 10.922C31.0475 10.9289 31.1525 10.8392 31.3767 10.7632C31.4654 10.7034 31.4794 10.6988 31.5518 10.6642L31.8086 10.5538C31.3043 10.2499 31.4117 10.6274 30.9121 10.6688C30.7486 10.3213 30.6669 10.3811 30.786 9.94844L30.4405 9.79193C30.3564 8.75621 30.5338 8.32121 30.8117 7.4374L30.8584 7.31081C30.9121 7.19343 30.9191 7.20264 30.9658 7.1474C31.435 7.02311 34.6826 6.94026 35.348 7.0001C36.2352 7.07835 35.9854 7.61462 36.3146 8.28669C36.5551 8.77693 36.5107 9.82645 36.2399 10.1878C35.871 10.3029 35.4344 10.2776 35.0515 10.2154C34.5192 10.1303 35.1216 9.81265 34.2951 9.83566L34.4141 9.98987C34.5846 10.1855 34.7573 10.3834 35.0258 10.4249C35.2756 10.4617 36.1115 10.4295 36.3916 10.4088L36.5434 10.0888C36.959 8.66645 36.3963 8.04502 36.1442 6.97018C35.5698 6.63184 34.0569 6.79065 33.2585 6.79065C32.7775 6.79295 30.765 6.80907 30.5268 7.08756L30.5198 7.08295Z" fill="#D8AC30"/>
<path fill-rule="evenodd" clip-rule="evenodd" d="M46.7671 32.6928C46.9235 33.4362 47.9508 34.1336 48.8427 34.2026C49.8676 34.2809 51.1984 33.6203 50.491 32.7734C50.1174 32.8746 49.7298 32.7526 49.2722 32.9667C49.0621 33.0657 48.6279 33.3879 48.4668 33.4408C48.0255 33.5881 47.0333 32.8884 46.8652 32.5041C46.7157 32.6238 46.669 32.3268 46.7671 32.6951V32.6928Z" fill="#979191"/>
<path fill-rule="evenodd" clip-rule="evenodd" d="M49.2419 13.0487C49.2442 13.295 49.2933 13.1914 49.1649 13.3479L49.2279 14.0315C49.438 13.654 49.389 12.9682 50.477 13.0027C50.4279 13.8934 50.9556 13.7438 50.1478 14.2478C50.589 14.234 50.9369 13.8888 51.168 13.7001C51.5556 13.2559 52.1253 11.9739 50.9999 11.8473C50.1688 11.7529 49.4193 12.4894 49.2396 13.0487H49.2419Z" fill="#979191"/>
<path fill-rule="evenodd" clip-rule="evenodd" d="M50.1688 9.80346C50.3509 10.5123 50.4956 10.6988 51.3361 10.7425L52.3004 10.7839C52.8163 10.7149 52.1206 11.0095 52.4521 10.7287C52.7183 10.5239 52.6763 10.5745 52.6015 10.1533C52.5572 9.90012 52.5222 9.70449 52.2957 9.56179C52.1463 9.45592 52.0295 9.26028 52.0155 9.25107L51.8708 9.22115C51.712 9.24877 51.9011 9.20734 51.747 9.27179L51.5323 9.32933C51.5206 9.32703 51.4949 9.32012 51.4832 9.31782C51.4716 9.31552 51.4459 9.30401 51.4342 9.30171C51.0396 9.24417 51.2031 9.60092 51.1237 9.42369C51.1167 9.40988 51.098 9.46052 51.084 9.47433C51.042 9.33623 51.0863 9.34314 50.8949 9.20504C50.8855 9.19814 50.8645 9.18663 50.8575 9.18433L50.7735 9.15671C50.7665 9.15441 50.5774 9.17282 50.3999 9.03012C50.3345 9.39147 50.1104 9.36155 50.1688 9.80115V9.80346Z" fill="#FBB211"/>
<path fill-rule="evenodd" clip-rule="evenodd" d="M31.3767 10.7609C31.1525 10.8368 31.0475 10.9266 30.744 10.9197L30.4568 10.4502L30.4801 10.8921L30.6296 11.0877C30.7346 11.2258 30.6529 11.1383 30.7603 11.258L31.9604 10.7287C32.2475 10.5307 32.3432 10.0267 32.8545 9.86327C33.2608 9.73208 33.9682 9.89319 34.2507 10.0704C34.4818 10.2154 34.9091 10.7701 34.8974 11.1775C34.1877 11.1867 32.9993 11.4376 33.0693 10.5722C33.3892 10.3213 33.2701 10.4755 33.625 10.3696C33.3752 10.266 33.1651 10.3305 32.9433 10.4318L32.9783 11.1245C32.1004 11.067 30.9144 11.1683 31.1082 12.2017C31.1806 12.5884 31.5284 12.784 31.965 12.8001C32.5557 12.8231 32.6794 12.5193 32.976 12.3237C32.5791 12.3053 32.1822 12.83 31.5214 12.4618C31.1409 12.0866 31.3066 10.8322 33.1651 11.3777C33.8678 11.5849 33.4569 11.4399 34.1246 11.3455L36.5504 11.3984C36.4523 11.3133 36.5364 11.3593 36.38 11.288C36.3309 11.2649 36.2889 11.2718 36.2142 11.2626L36.2329 11.0555C35.934 11.1752 35.5651 11.1637 35.1659 11.1176L34.9581 10.5653C35.2873 10.5077 35.4227 10.5537 35.7473 10.5676C36.1862 10.586 36.3169 10.4663 36.3169 10.7931C36.4734 10.6297 36.6671 10.3765 36.5387 10.0773L36.387 10.3972C36.1068 10.4203 35.271 10.4525 35.0212 10.4133C34.7527 10.3719 34.5799 10.174 34.4095 9.97835L34.2904 9.82414C33.6203 9.75969 33.4242 9.39374 32.5977 9.84946C31.923 10.22 32.1028 10.5422 31.3767 10.7563V10.7609Z" fill="#381704"/>
<path fill-rule="evenodd" clip-rule="evenodd" d="M26.9127 21.3713C26.9244 21.751 27.2723 22.7384 27.466 23.01C27.8046 22.9202 27.6108 22.9778 27.7859 22.7752C27.7976 22.7637 27.8092 22.743 27.8209 22.7315L28.7104 21.8707C29.2428 21.2815 29.8008 20.9109 29.7587 20.6071C29.2077 20.5496 27.5244 21.2078 26.9127 21.369V21.3713Z" fill="#979191"/>
<path fill-rule="evenodd" clip-rule="evenodd" d="M31.4724 15.8313C30.765 15.9349 30.5852 15.6081 30.249 15.3319C30.3798 14.9843 30.2514 15.2559 30.5128 15.0027C30.4428 14.6598 30.1907 14.6299 30.5292 14.5355C30.7767 14.4665 31.0452 14.5816 31.2086 14.7058C31.5985 15.0073 31.7526 15.394 31.4724 15.8313ZM29.3455 14.8739C29.5346 15.058 29.6397 15.4193 30.0833 15.7254C30.3938 15.9418 30.9308 16.1512 31.3347 16.0085C32.1495 15.7231 31.8506 14.8462 31.2413 14.2041C31.0872 14.043 31.1269 14.1189 31.0008 13.9325C30.6413 13.8082 30.1486 13.5021 29.6513 13.7415C29.2334 13.9417 29.2521 14.3767 29.3478 14.8739H29.3455Z" fill="#979191"/>
<path fill-rule="evenodd" clip-rule="evenodd" d="M43.4098 13.0648C43.7367 13.2121 43.5452 13.1914 43.809 13.4561C44.0192 13.6655 44.1125 13.5965 44.2339 13.9371L44.4277 13.9256C43.8837 13.5619 44.0659 13.3617 44.2199 13.1407L44.3507 12.8669C44.3577 12.8438 44.3647 12.8208 44.3717 12.8001L44.4231 12.6643C44.9834 12.7126 45.2822 13.0717 45.3009 13.6034C45.5391 13.509 45.3873 12.8991 45.3943 12.6781C45.2355 11.2442 42.4829 10.5975 43.4075 13.0648H43.4098Z" fill="#979191"/>
<path fill-rule="evenodd" clip-rule="evenodd" d="M36.8376 29.5879L36.8796 28.3589L35.1589 28.3704L34.734 28.3129C34.769 28.7709 34.7247 29.4107 34.9395 29.7306C35.3083 29.8526 36.7255 30.1242 36.8376 29.5856V29.5879Z" fill="#BD6B43"/>
<path fill-rule="evenodd" clip-rule="evenodd" d="M35.8103 14.7496C35.4227 14.1212 35.6095 13.3479 36.4664 13.2443C36.5107 13.3203 36.478 13.2927 36.5201 13.4262C36.5597 13.5574 36.492 13.4607 36.5784 13.608C36.6718 13.7714 36.5434 13.6172 36.6952 13.73C36.6975 13.7323 36.8422 13.7967 36.8446 13.799C36.8399 14.3491 36.5107 14.7749 35.8103 14.7473V14.7496ZM36.4967 12.3237C35.9224 12.5193 35.5325 12.9797 35.3877 13.6747C35.2266 14.4458 35.6796 15.1408 36.4734 14.8232C37.7434 14.3123 38.0073 11.8104 36.499 12.3237H36.4967Z" fill="#979191"/>
<path fill-rule="evenodd" clip-rule="evenodd" d="M26.5532 26.7547C26.5859 26.5291 26.4691 26.124 26.4575 25.765C26.4364 25.063 25.9485 24.9364 25.4605 24.506C25.1524 24.2344 25.1687 24.0917 24.7321 24.0411C24.1438 25.0906 24.6831 25.1758 25.7804 26.3151C26.0465 26.5936 26.1073 26.7915 26.5532 26.7524V26.7547Z" fill="#979191"/>
<path fill-rule="evenodd" clip-rule="evenodd" d="M33.8632 29.9032C34.0289 29.7652 34.3558 29.8043 34.6126 29.7053C34.7153 29.4659 34.6803 29.2312 34.6966 28.9113C34.7247 28.375 34.783 28.3428 34.2787 28.3704L32.8429 28.4601L32.6935 29.7421L33.8608 29.9032H33.8632Z" fill="#BD6B43"/>
<path fill-rule="evenodd" clip-rule="evenodd" d="M47.9858 16.1397C48.0442 17.279 46.7975 16.8901 46.655 16.6484C46.2768 16.0108 47.2037 15.7991 47.9858 16.1397ZM45.4433 15.058C45.4643 15.0396 45.5017 14.9751 45.5157 14.9613L45.7258 14.8347C45.3126 14.8232 45.2309 14.8117 45.0511 15.1408C45.0628 15.1478 45.0861 15.1524 45.0908 15.1524C45.0978 15.1524 45.1235 15.1593 45.1328 15.1593L45.3826 15.0557C45.5437 15.4401 45.6395 15.2329 45.8402 15.5597C45.9827 15.7922 46.2231 16.9982 47.2434 17.0305C47.7664 17.0466 48.2473 16.6576 48.4738 16.3469C48.6652 16.0845 48.6302 15.9556 48.7843 15.7162C48.9547 15.4516 49.0435 15.5436 49.2372 15.2835C49.6271 15.3457 49.3423 15.302 49.6435 15.4654C49.5991 15.1063 49.459 15.0258 49.0061 15.0511C48.8147 15.5828 49.1322 14.8969 49.1088 15.2398C47.2551 16.241 46.0317 15.2421 45.4457 15.058H45.4433Z" fill="#381704"/>
<path fill-rule="evenodd" clip-rule="evenodd" d="M43.6853 20.2918L43.8347 21.0329L48.2707 19.1272L47.7174 18.9454C47.0846 19.3482 47.3298 19.5576 46.4333 18.9431C45.9453 19.1686 45.3126 19.1848 45.1352 19.8545C44.918 20.6808 44.4651 20.5588 43.6853 20.2941V20.2918Z" fill="#979191"/>
<path fill-rule="evenodd" clip-rule="evenodd" d="M36.8913 9.49734L36.7699 10.3627C37.078 10.4525 38.4275 10.4939 38.7194 10.4295C38.8127 10.2131 38.9482 10.0451 38.9715 9.739C38.9131 9.56408 38.8851 9.159 38.7987 8.96106C38.3995 8.95876 38.7264 8.97487 38.4042 9.1636L38.2944 9.21884C38.068 9.2948 37.4423 9.23035 37.3022 9.27868C37.0384 9.36845 37.2672 9.32702 37.1107 9.53876L36.9917 9.26948L36.8889 9.49964L36.8913 9.49734Z" fill="#173B89"/>
<path fill-rule="evenodd" clip-rule="evenodd" d="M34.9114 32.1657C35.0539 32.4603 35.1519 32.5892 35.3901 32.8079C35.5091 32.9161 35.5698 32.9644 35.6889 33.068L36.0765 33.3695C36.1372 33.2521 35.9877 33.2682 36.2399 33.2889C36.2726 33.0288 36.3286 32.87 36.415 32.6859C36.3099 32.5179 36.2702 32.534 36.2889 32.3038L36.0998 32.2463L36.1488 31.9287C35.8383 31.6939 35.6189 30.7825 35.1052 31.0264C34.7643 31.3993 34.8577 31.7353 34.9138 32.1657H34.9114Z" fill="#B1312F"/>
<path fill-rule="evenodd" clip-rule="evenodd" d="M33.4756 32.1404C33.4733 32.1427 33.3308 32.1726 33.3308 32.1726C33.2795 32.1726 33.2701 32.2808 33.2141 32.1519C33.2048 32.1289 33.1721 32.1381 33.1511 32.1312L33.1091 32.4097C32.948 32.4281 32.8382 32.2992 32.5954 32.2187L32.6725 32.3153C33.053 32.7227 33.2771 32.5363 33.1534 33.2383C33.2701 33.2429 33.2421 33.2129 33.2421 33.328C33.4779 33.2106 33.6811 33.0518 33.8725 32.9137C34.1223 32.7342 34.2881 32.6237 34.4258 32.389C34.3488 32.2785 34.4072 32.3568 34.5122 32.1979C34.6593 31.9793 34.6266 32.1657 34.671 31.8136C34.7293 31.3648 34.6103 31.2796 34.5145 31.0034C34.0383 31.1093 33.8071 31.1645 33.6157 31.7284L33.4779 32.1427L33.4756 32.1404Z" fill="#B1312F"/>
<path fill-rule="evenodd" clip-rule="evenodd" d="M48.2053 32.3038L48.1259 31.9655C48.5181 31.7307 49.0154 31.4522 49.6084 31.6962C49.424 31.8067 49.0971 31.8366 48.866 31.9241C48.5578 32.0391 48.4317 32.1841 48.2053 32.3038ZM47.8854 31.9655C47.6683 31.3441 48.8637 31.0679 49.2956 31.4108C49.0691 31.5144 48.838 31.5029 48.5462 31.6203C48.224 31.7514 48.1119 31.855 47.8831 31.9655H47.8854ZM49.0458 30.4787C49.1415 30.893 49.0458 30.962 48.6862 31.0149C48.3687 31.061 48.1843 31.1369 47.9158 31.1553L47.7594 30.603C48.0699 30.458 48.6279 30.3889 49.0434 30.4787H49.0458ZM48.5788 30.1357C48.2847 30.1979 47.9858 30.2163 47.7033 30.3199C47.2924 30.4718 47.3391 30.4971 47.4698 30.8907L47.1243 30.8791C47.2784 31.0057 46.9562 30.8999 47.3414 31.0403L47.1313 31.107C47.5679 31.3924 47.778 31.084 47.7407 31.6226C47.7127 32.0345 47.645 31.832 47.8808 32.0737C48.0068 32.2003 48.0956 32.3061 48.2053 32.3729C48.7096 32.3038 49.0551 31.6778 49.7415 32.0046L49.7906 31.908C49.6645 31.4545 49.5034 31.5673 49.347 31.1899C49.2349 30.9229 49.3656 30.6536 49.3796 30.3498C49.1345 30.1795 49.1322 30.2922 49.0388 30.0667L48.8146 30.2324C48.7983 30.2393 48.7773 30.2508 48.7586 30.2554C48.7026 30.2761 48.5532 30.2899 48.4411 30.2991C48.6372 30.2094 48.4738 30.2945 48.5812 30.1334L48.5788 30.1357Z" fill="#4F132A"/>
<path fill-rule="evenodd" clip-rule="evenodd" d="M33.3869 17.9235L33.6554 17.9189C33.7558 17.3573 33.7884 17.378 34.134 17.2721L34.26 17.2376C34.5239 17.157 34.7036 17.0305 34.9371 17.1985C35.1052 17.3181 35.0025 17.2698 35.0889 17.4424C35.3177 17.8935 34.9184 17.1778 35.1356 17.5414C35.3083 17.8291 35.0165 17.5598 35.2266 17.6473C35.5745 17.2054 35.5395 17.1662 35.6329 16.5701C35.7286 15.9556 36.2912 15.9395 36.3496 15.9096L35.9037 15.7945C35.7449 16.0431 36.0694 15.5114 35.8336 15.9372C35.8266 15.951 35.815 15.9717 35.808 15.9855C35.6352 16.2732 35.4788 16.3423 35.1893 16.4919C34.5309 16.8371 33.8421 17.0212 33.067 16.9821C31.9674 16.9269 32.2849 16.6484 32.2732 16.5609L31.9697 16.7911L32.2078 16.867C32.3619 16.9154 32.3106 16.8878 32.4506 16.9453C32.7565 17.0696 33.2444 17.7002 33.3869 17.9212V17.9235Z" fill="#381704"/>
<path fill-rule="evenodd" clip-rule="evenodd" d="M32.0911 25.6614C32.5767 25.742 34.3394 25.7972 34.699 25.6039C34.3278 25.3967 33.8024 25.1919 33.3985 24.9985C33.2515 24.9272 32.8569 24.7661 32.7542 24.6832C32.418 24.4139 32.7285 24.2436 32.1401 24.3058C32.1308 24.8167 31.9557 25.3415 32.0911 25.6614Z" fill="#979191"/>
<path fill-rule="evenodd" clip-rule="evenodd" d="M1.19121 11.0486C1.48072 10.8944 2.3002 10.197 2.4613 9.94387C2.3609 9.73673 1.73753 9.2672 1.49472 9.15903C0.558505 9.89554 0.493133 9.76665 1.18888 11.0486H1.19121Z" fill="#979191"/>
<path fill-rule="evenodd" clip-rule="evenodd" d="M45.3966 34.274L47.8948 34.2694C47.6683 34.06 47.3344 33.8482 47.0963 33.618C46.8535 33.3833 46.7508 33.0196 46.515 32.7872C46.3048 33.1002 46.1951 33.3672 46.0153 33.625C45.8169 33.908 45.6371 33.9978 45.3966 34.274Z" fill="#4B4745"/>
<path fill-rule="evenodd" clip-rule="evenodd" d="M49.1649 13.3479C49.0575 12.8531 48.9477 13.9141 49.3656 14.2363C49.8583 14.6184 50.5447 14.3192 50.9906 14.0154C51.2427 13.845 51.1424 13.9578 51.2684 13.7069L51.1704 13.7C50.9392 13.8888 50.5914 14.2317 50.1501 14.2478C50.9579 13.7461 50.4279 13.8934 50.4793 13.0027C49.389 12.9681 49.438 13.654 49.2302 14.0315L49.1672 13.3479H49.1649Z" fill="#6D9833"/>
<path fill-rule="evenodd" clip-rule="evenodd" d="M36.952 30.6329L36.896 30.4602L36.1489 30.5132C36.7139 30.3383 37.0127 30.3843 37.1575 29.8365C35.8664 30.1449 36.0391 30.046 34.755 29.871C34.7877 30.5339 34.9652 29.8941 35.0445 30.7157C35.5185 30.8331 35.4414 31.0057 35.8547 30.8423C36.2913 30.6697 36.4617 30.6674 36.952 30.6329Z" fill="#979191"/>
<path fill-rule="evenodd" clip-rule="evenodd" d="M30.1486 11.525C29.733 11.4767 29.2754 11.3616 28.8972 11.5826C28.575 11.7713 28.4023 12.1419 28.6404 12.5078C28.6894 12.5815 29.8007 13.3663 30.1486 11.525Z" fill="#863329"/>
<path fill-rule="evenodd" clip-rule="evenodd" d="M45.518 30.6651L45.4177 31.1162C45.8356 31.13 46.048 31.1346 46.1297 30.748C46.3539 29.6984 46.3702 30.5707 46.4496 29.8296C45.1492 29.9976 45.1748 30.1864 43.8371 29.8342C43.9211 30.7042 44.6986 30.0989 45.518 30.6674V30.6651Z" fill="#979191"/>
<path fill-rule="evenodd" clip-rule="evenodd" d="M49.919 34.2763C50.5774 34.2878 51.6794 33.8068 51.7097 33.236C51.7424 32.6284 50.5727 32.1657 49.968 32.0737C50.2855 32.4189 51.4902 33.0795 50.554 33.8942C50.1945 34.2072 50.2598 34.083 49.9166 34.2763H49.919Z" fill="#4B4745"/>
<path fill-rule="evenodd" clip-rule="evenodd" d="M45.3616 17.8176C45.7001 18.4828 45.3336 18.4413 45.6301 18.9316C45.9523 18.8809 46.1811 18.7129 46.5056 18.5978C46.5173 17.4562 46.7087 17.7578 45.9523 17.2353L45.6698 17.5414C45.5344 17.6818 45.4667 17.7232 45.3616 17.8176Z" fill="#979191"/>
<path fill-rule="evenodd" clip-rule="evenodd" d="M33.3869 17.9235C33.6297 18.0363 34.2437 18.6991 35.0002 17.9534C35.0118 17.9419 35.0282 17.9258 35.0398 17.9143L35.229 17.6473C35.0212 17.5598 35.3107 17.8291 35.1379 17.5414C34.9208 17.1778 35.32 17.8913 35.0912 17.4424C35.0025 17.2698 35.1052 17.3182 34.9395 17.1985C34.706 17.0305 34.5239 17.157 34.2624 17.2376L34.1363 17.2721C33.7908 17.3757 33.7581 17.3573 33.6577 17.9189L33.3892 17.9235H33.3869Z" fill="#B1312F"/>
<path fill-rule="evenodd" clip-rule="evenodd" d="M44.2316 13.9371C44.311 14.0315 44.1219 13.967 44.4581 14.0867C44.6472 14.1535 44.7079 14.1581 44.9087 14.1396C45.3499 14.0982 45.3079 13.944 45.3033 13.6057C45.2846 13.0763 44.9857 12.715 44.4254 12.6666L44.374 12.8024C44.367 12.8231 44.36 12.8485 44.353 12.8692L44.2223 13.1431C44.0682 13.3617 43.8837 13.5642 44.4301 13.9279L44.2363 13.9394L44.2316 13.9371Z" fill="#6D9833"/>
<path fill-rule="evenodd" clip-rule="evenodd" d="M35.8103 14.7496C36.5107 14.7749 36.8399 14.3491 36.8446 13.8013C36.8399 13.799 36.6975 13.7346 36.6952 13.7322C36.5434 13.6195 36.6742 13.7714 36.5784 13.6103C36.4921 13.4607 36.5621 13.5573 36.5201 13.4284C36.4804 13.2949 36.5131 13.3226 36.4664 13.2466C35.6095 13.3502 35.4228 14.1212 35.8103 14.7519V14.7496Z" fill="#4F132A"/>
<path fill-rule="evenodd" clip-rule="evenodd" d="M33.4779 34.2717L35.6819 34.2809C35.4181 33.9817 35.1005 33.6779 34.9068 33.3487C34.783 33.1416 34.9021 33.2014 34.6803 33.061L34.0873 33.7492C34.0756 33.7607 34.0569 33.7745 34.0453 33.786L33.9122 33.8942C33.8982 33.9057 33.8818 33.9195 33.8678 33.931L33.4779 34.2717Z" fill="#4B4745"/>
<path fill-rule="evenodd" clip-rule="evenodd" d="M30.8397 14.9038C31.1596 14.9383 31.1222 14.8969 31.1689 15.2122C30.8794 15.1915 30.8584 15.1869 30.8397 14.9038ZM30.249 15.3296C30.5852 15.6058 30.765 15.9326 31.4724 15.829C31.7503 15.3917 31.5985 15.005 31.2086 14.7035C31.0452 14.5769 30.7767 14.4642 30.5292 14.5332C30.1907 14.6276 30.4428 14.6575 30.5129 15.0004C30.249 15.2536 30.3774 14.982 30.249 15.3296Z" fill="#4F132A"/>
<path fill-rule="evenodd" clip-rule="evenodd" d="M37.2672 10.6274C36.6251 10.6067 36.5901 10.5008 36.478 11.1729C36.8889 11.1844 37.3255 11.1867 37.7574 11.1982C38.4345 11.2166 38.5209 11.3501 38.5793 10.7218C38.1427 10.6597 37.7504 10.6412 37.2695 10.6251L37.2672 10.6274Z" fill="#173B89"/>
<path fill-rule="evenodd" clip-rule="evenodd" d="M32.6257 30.5178C33.4336 30.4764 33.6974 30.9413 34.3534 30.8055L34.4795 30.0989C34.3394 29.9263 34.5169 30.0483 34.2157 30.0138C33.548 30.1841 32.9666 30.0667 32.4647 29.7882C32.4553 30.3291 33.0343 30.2117 33.4803 30.3774L32.6864 30.3866L32.6234 30.5178H32.6257Z" fill="#979191"/>
<path fill-rule="evenodd" clip-rule="evenodd" d="M47.9858 16.1397C47.2037 15.7991 46.2768 16.0085 46.655 16.6484C46.7975 16.8901 48.0442 17.279 47.9858 16.1397Z" fill="#B1312F"/>
<path fill-rule="evenodd" clip-rule="evenodd" d="M34.9418 20.0225L36.8096 20.5887L36.8562 20.0432C36.4056 19.8706 35.6048 19.6243 35.1005 19.5553L34.9395 20.0225H34.9418Z" fill="#979191"/>
<path fill-rule="evenodd" clip-rule="evenodd" d="M31.2436 24.9456C31.7549 24.9917 31.9977 24.7224 32.0584 24.2736C31.7362 23.9697 31.6545 24.2091 31.3137 23.735C31.0989 23.4358 31.3767 23.6475 31.0825 23.4657C30.765 23.9007 30.9541 24.5889 31.2436 24.9456Z" fill="#BD6B43"/>
<path fill-rule="evenodd" clip-rule="evenodd" d="M47.122 30.8814L47.4675 30.8929C47.3368 30.4994 47.2901 30.474 47.701 30.3221C47.9835 30.2186 48.2823 30.2002 48.5765 30.138C48.8964 30.0068 48.852 30.0966 48.9757 29.7352C47.9251 30.0022 48.322 30.1472 46.7391 29.9447C46.7881 30.8216 46.7181 30.8331 47.1243 30.8814H47.122Z" fill="#979191"/>
<path fill-rule="evenodd" clip-rule="evenodd" d="M47.3578 25.6453C47.7267 25.6867 48.9991 25.4612 49.3096 25.2955L49.1952 24.5521C48.9641 24.5705 47.6076 25.4497 47.3578 25.6453Z" fill="#979191"/>
<path fill-rule="evenodd" clip-rule="evenodd" d="M45.1071 31.3302L45.2846 30.8124C45.2962 30.8101 45.2729 30.7686 45.2636 30.7848C45.2565 30.7986 45.2262 30.7548 45.2145 30.7479C44.8363 30.5017 43.4915 30.3406 43.8604 31.031C44.0168 31.321 43.8254 31.1461 44.1639 31.2244C44.3904 31.275 44.8246 31.321 45.1071 31.3325V31.3302Z" fill="#D21D72"/>
<path fill-rule="evenodd" clip-rule="evenodd" d="M52.4895 13.0924C52.5268 13.1224 52.765 13.2627 52.6903 13.4883C52.5618 13.3571 53.0638 13.15 53.2039 13.0993C53.2249 13.0924 53.2459 13.0878 53.2669 13.0809C53.5261 12.9912 53.386 13.1154 53.5868 12.9267C53.7525 13.0786 53.6452 12.9382 53.7432 13.1799C53.8133 13.3548 53.7245 13.2835 53.8389 13.4837C54.2218 12.7495 53.6615 12.3145 52.8373 12.4112L52.4895 13.097V13.0924Z" fill="#D6C7B1"/>
<path fill-rule="evenodd" clip-rule="evenodd" d="M47.3951 17.7532L46.7228 17.7117C46.7414 18.0846 46.529 19.0144 47.0776 19.0213C47.5726 19.0259 47.4278 18.1398 47.3951 17.7532Z" fill="#F1C691"/>
<path fill-rule="evenodd" clip-rule="evenodd" d="M31.4864 23.7212C31.6872 23.8432 31.825 23.9444 32.1168 24.0365C32.0258 23.1297 32.5067 22.6141 31.8086 22.4162C31.5401 22.7315 31.4491 23.3207 31.4864 23.7235V23.7212Z" fill="#90746D"/>
<path fill-rule="evenodd" clip-rule="evenodd" d="M32.6794 18.584C32.6724 18.6001 32.6631 18.6093 32.6631 18.6324C32.6631 18.6554 32.6514 18.6715 32.6538 18.6807C32.6771 18.8372 32.6234 18.6899 32.6958 18.8257L33.1721 19.5461C33.5059 19.5461 33.6764 19.477 33.8912 19.3136L33.8958 18.9201C33.688 18.8464 33.4522 18.8004 33.2911 18.729C33.0413 18.6208 32.9339 18.4943 32.6794 18.584Z" fill="#979191"/>
<path fill-rule="evenodd" clip-rule="evenodd" d="M40.1856 11.1108C39.9147 11.0233 39.4641 11.0992 39.1279 11.1384C38.6867 11.1913 38.5746 11.2926 38.6283 11.7621C38.8711 11.723 40.0945 11.5043 40.1879 11.4698L40.1832 11.1108H40.1856Z" fill="#6D9833"/>
<path fill-rule="evenodd" clip-rule="evenodd" d="M31.1642 23.1412C31.5238 22.8259 31.8156 21.6451 30.9564 21.705C30.8467 22.285 30.6272 22.8995 31.1642 23.1412Z" fill="#BD6B43"/>
<path fill-rule="evenodd" clip-rule="evenodd" d="M36.4664 31.5604C37.0454 31.3302 37.1948 31.664 37.2158 30.9021C36.6461 30.8377 36.422 30.8492 35.913 31.0448C35.9247 31.2957 35.9551 31.4062 36.1465 31.6202L36.4687 31.5604H36.4664Z" fill="#BD6B43"/>
<path fill-rule="evenodd" clip-rule="evenodd" d="M50.4723 22.9709C50.8295 22.8535 51.1167 22.7476 51.0863 22.3172C51.0746 22.1423 50.8575 21.4978 50.7711 21.3828C50.1221 21.5899 50.6217 22.3448 50.4699 22.9709H50.4723Z" fill="#D6C7B1"/>
<path fill-rule="evenodd" clip-rule="evenodd" d="M51.2544 22.14C51.7144 22.0433 51.6303 21.583 51.5649 21.0467C51.5066 20.568 51.4599 20.6831 51.4155 20.614C50.7034 20.789 51.056 21.7533 51.2544 22.14Z" fill="#D6C7B1"/>
<path fill-rule="evenodd" clip-rule="evenodd" d="M47.7594 30.603L47.9158 31.1553C48.182 31.1369 48.3664 31.0633 48.6862 31.0149C49.0458 30.962 49.1415 30.8953 49.0458 30.4787C48.6302 30.3889 48.0722 30.4557 47.7617 30.603H47.7594Z" fill="#D21D72"/>
<path fill-rule="evenodd" clip-rule="evenodd" d="M36.2329 11.0601L36.3146 10.7977C36.3169 10.4709 36.1839 10.5906 35.7449 10.5722C35.4228 10.5584 35.285 10.5123 34.9558 10.5699L35.1636 11.1223C35.5628 11.1683 35.9317 11.1798 36.2306 11.0601H36.2329Z" fill="#D8AC30"/>
<path fill-rule="evenodd" clip-rule="evenodd" d="M30.6273 22.1745L30.723 21.5577C31.1409 21.4587 31.379 21.6474 31.4421 21.2032C31.6172 19.9995 29.7377 21.6221 30.6273 22.1745Z" fill="#90746D"/>
<path fill-rule="evenodd" clip-rule="evenodd" d="M32.502 31.2014C32.6654 31.275 33.3425 31.5075 33.4943 31.5282L33.7838 30.9689C33.2048 30.8354 33.1954 30.7503 32.509 30.7157L32.502 31.2014Z" fill="#BD6B43"/>
<path fill-rule="evenodd" clip-rule="evenodd" d="M24.5266 22.4622C24.7368 22.6993 24.7578 22.7936 25.0566 22.865L25.1337 22.7752C25.2411 22.6141 25.5796 22.117 25.5633 21.972C25.5609 21.972 25.5446 21.7326 25.0123 22.1078C24.8582 22.2159 24.6527 22.3264 24.5266 22.4645V22.4622Z" fill="#979191"/>
<path fill-rule="evenodd" clip-rule="evenodd" d="M34.225 18.9983C34.0733 19.5645 34.1223 19.8407 34.755 19.7601L34.8858 18.9661C34.5986 18.9108 34.4795 18.9062 34.225 18.9983Z" fill="#90746D"/>
<path fill-rule="evenodd" clip-rule="evenodd" d="M43.6806 31.5949C43.753 31.6456 43.704 31.6455 43.8627 31.687C43.9141 31.7008 44.0098 31.7054 44.0729 31.7169C44.6682 31.8182 44.7919 32.0391 44.9554 32.0921L45.1001 32.0944C45.1001 32.0944 45.3569 31.9908 45.0371 31.7054C45.0044 31.6755 44.7499 31.5443 44.6565 31.5121C44.3483 31.4016 43.9421 31.3763 43.6783 31.5949H43.6806Z" fill="#979191"/>
<path fill-rule="evenodd" clip-rule="evenodd" d="M43.3631 31.9103C43.4775 31.9816 43.2534 31.9149 43.5429 31.9931C43.5989 32.0092 43.6853 32.0184 43.7507 32.0299C44.3297 32.1496 44.4161 32.3222 44.5771 32.389C44.6262 32.4097 44.6285 32.4097 44.6752 32.4189C44.6845 32.4212 44.7149 32.4166 44.7242 32.4166C44.7336 32.4166 44.7593 32.412 44.7756 32.4097C44.7756 32.4097 45.0184 32.2854 44.7079 32.0322C44.6449 31.9793 44.402 31.8918 44.3133 31.8619C44.0845 31.7791 43.4191 31.6364 43.3654 31.9103H43.3631Z" fill="#979191"/>
<path fill-rule="evenodd" clip-rule="evenodd" d="M51.2381 20.3355L51.6536 20.5012C51.7167 20.7521 51.67 20.782 51.8171 20.9662C51.9478 20.6601 51.8358 20.0156 51.761 19.7003C51.3174 19.7141 51.3151 19.866 51.2381 20.3355Z" fill="#F1C691"/>
<path fill-rule="evenodd" clip-rule="evenodd" d="M47.8831 31.9655C48.1096 31.855 48.2216 31.7514 48.5462 31.6202C48.8357 31.5029 49.0691 31.5144 49.2956 31.4108C48.8637 31.0702 47.666 31.344 47.8854 31.9655H47.8831Z" fill="#979191"/>
<path fill-rule="evenodd" clip-rule="evenodd" d="M32.5954 32.2164C32.8382 32.2969 32.9479 32.4258 33.109 32.4074L33.1511 32.1289C32.7822 31.8895 32.404 31.5926 31.8623 31.7906C31.9627 31.8987 31.8693 31.8504 32.0234 31.9356C32.0981 31.9793 32.1658 31.9885 32.2569 32.0207C32.3339 32.0483 32.3363 32.0414 32.4226 32.0875L32.5931 32.2141L32.5954 32.2164Z" fill="#979191"/>
<path fill-rule="evenodd" clip-rule="evenodd" d="M30.4895 21.0974C30.7533 20.7843 30.2117 20.0133 29.9922 20.1169C29.705 20.2504 30.0623 20.7199 30.235 20.9409C30.4288 21.1917 30.3097 21.0744 30.4918 21.0951L30.4895 21.0974Z" fill="#90746D"/>
<path fill-rule="evenodd" clip-rule="evenodd" d="M48.2053 32.3038C48.4317 32.1842 48.5578 32.0391 48.866 31.9241C49.0971 31.8366 49.424 31.8067 49.6084 31.6962C49.0154 31.4522 48.5181 31.7284 48.1259 31.9655L48.2053 32.3038Z" fill="#979191"/>
<path fill-rule="evenodd" clip-rule="evenodd" d="M36.2469 31.855L36.1465 31.9287L36.0975 32.2463L36.2866 32.3038C36.5457 32.0345 36.7815 31.9885 37.0967 31.9102L37.4423 31.7468C36.9006 31.6272 36.7442 31.6456 36.2446 31.8573L36.2469 31.855Z" fill="#979191"/>
<path fill-rule="evenodd" clip-rule="evenodd" d="M36.3963 32.6053C36.7022 32.5455 36.6508 32.4626 36.966 32.3291C37.3115 32.1818 37.4656 32.2302 37.6804 32.0668C37.3652 31.8665 36.3263 31.9379 36.3987 32.6053H36.3963Z" fill="#979191"/>
<path fill-rule="evenodd" clip-rule="evenodd" d="M33.1511 32.1289C33.1721 32.1358 33.2048 32.1266 33.2141 32.1496C33.2678 32.2785 33.2795 32.1703 33.3309 32.1703C33.3309 32.1703 33.4733 32.1404 33.4756 32.1381C33.4149 31.6502 32.6771 31.3533 32.2079 31.5926C32.4553 31.7952 32.6818 31.71 32.9923 31.9333C33.1814 32.0714 33.081 31.9816 33.1534 32.1289H33.1511Z" fill="#979191"/>
<path fill-rule="evenodd" clip-rule="evenodd" d="M52.5478 12.6712C52.1276 12.7633 52.1953 12.7772 51.7704 12.6781C51.8965 13.0765 52.0225 13.0581 52.4451 13.1157L52.5478 12.6712Z" fill="#D6C7B1"/>
<path fill-rule="evenodd" clip-rule="evenodd" d="M49.3656 18.6416L49.8909 18.3884L49.8863 17.882C49.6528 18.0501 49.4824 18.3447 49.3656 18.6416Z" fill="#979191"/>
<path fill-rule="evenodd" clip-rule="evenodd" d="M36.9847 20.6854L37.4399 20.7982C37.3605 20.522 37.2088 20.324 37.0313 20.1698C36.945 20.4598 36.945 20.3701 36.9847 20.6854Z" fill="#979191"/>
<path fill-rule="evenodd" clip-rule="evenodd" d="M46.4332 31.13C46.5967 30.9988 46.6013 31.0563 46.6153 30.8101C46.6223 30.6605 46.571 30.4625 46.5126 30.3613C46.4006 30.4694 46.3212 30.5753 46.3422 30.886C46.3655 31.2704 46.2675 30.6789 46.3655 31.0241L46.4332 31.13Z" fill="#D8D7D8"/>
<path fill-rule="evenodd" clip-rule="evenodd" d="M44.227 20.3012C44.0915 20.0111 44.0215 19.9351 43.6853 19.8706C43.7857 20.2206 43.8814 20.2298 44.227 20.3012Z" fill="#D8D7D8"/>
<path fill-rule="evenodd" clip-rule="evenodd" d="M31.1689 15.2122C31.1222 14.8992 31.1596 14.9406 30.8397 14.9038C30.8584 15.1869 30.8794 15.1892 31.1689 15.2122Z" fill="#D8D7D8"/>
</svg>
